<svg width="87" height="21" viewBox="0 0 87 21" fill="none" xmlns="http://www.w3.org/2000/svg">
<path d="M11.3 9.836C12.196 10.2653 12.9053 10.8813 13.428 11.684C13.9693 12.4867 14.24 13.4107 14.24 14.456C14.24 16.024 13.6893 17.34 12.588 18.404C11.4867 19.468 10.1427 20 8.556 20H0.1V0.399999H7.94C9.47067 0.399999 10.768 0.913332 11.832 1.94C12.896 2.96667 13.428 4.236 13.428 5.748C13.428 7.484 12.7187 8.84667 11.3 9.836ZM7.94 2.836H2.704V8.828H7.94C8.76133 8.828 9.452 8.53867 10.012 7.96C10.572 7.38133 10.852 6.672 10.852 5.832C10.852 5.01067 10.5627 4.31067 9.984 3.732C9.424 3.13467 8.74267 2.836 7.94 2.836ZM8.556 17.564C9.43333 17.564 10.1707 17.256 10.768 16.64C11.3653 16.024 11.664 15.268 11.664 14.372C11.664 13.4947 11.356 12.748 10.74 12.132C10.1427 11.516 9.41467 11.208 8.556 11.208H2.704V17.564H8.556ZM18.0246 14.12C18.2673 15.3707 18.8366 16.3413 19.7326 17.032C20.6473 17.7227 21.7673 18.068 23.0926 18.068C24.9406 18.068 26.2846 17.3867 27.1246 16.024L29.1966 17.2C27.8339 19.3093 25.7806 20.364 23.0366 20.364C20.8153 20.364 19.0046 19.6733 17.6046 18.292C16.2233 16.892 15.5326 15.128 15.5326 13C15.5326 10.8907 16.2139 9.136 17.5766 7.736C18.9393 6.336 20.7033 5.636 22.8686 5.636C24.9219 5.636 26.5926 6.364 27.8806 7.82C29.1873 9.25733 29.8406 10.9933 29.8406 13.028C29.8406 13.3827 29.8126 13.7467 29.7566 14.12H18.0246ZM22.8686 7.932C21.5619 7.932 20.4793 8.30533 19.6206 9.052C18.7619 9.78 18.2299 10.76 18.0246 11.992H27.3766C27.1713 10.6667 26.6486 9.65867 25.8086 8.968C24.9686 8.27733 23.9886 7.932 22.8686 7.932ZM38.7728 5.636C40.4155 5.636 41.7315 6.15867 42.7208 7.204C43.7101 8.23067 44.2048 9.63067 44.2048 11.404V20H41.7688V11.544C41.7688 10.4053 41.4608 9.528 40.8448 8.912C40.2288 8.27733 39.3795 7.96 38.2968 7.96C37.0835 7.96 36.1035 8.34267 35.3568 9.108C34.6101 9.85467 34.2368 11.012 34.2368 12.58V20H31.8008V0.399999H34.2368V8.016C35.2261 6.42933 36.7381 5.636 38.7728 5.636ZM56.4255 6H58.8615V20H56.4255V17.984C55.4362 19.5707 53.9242 20.364 51.8895 20.364C50.2468 20.364 48.9308 19.8507 47.9415 18.824C46.9522 17.7787 46.4575 16.3693 46.4575 14.596V6H48.8935V14.456C48.8935 15.5947 49.2015 16.4813 49.8175 17.116C50.4335 17.732 51.2828 18.04 52.3655 18.04C53.5788 18.04 54.5588 17.6667 55.3055 16.92C56.0522 16.1547 56.4255 14.988 56.4255 13.42V6ZM63.2702 20.308C62.7662 20.308 62.3369 20.1307 61.9822 19.776C61.6275 19.4213 61.4502 18.992 61.4502 18.488C61.4502 17.984 61.6275 17.5547 61.9822 17.2C62.3369 16.8453 62.7662 16.668 63.2702 16.668C63.7929 16.668 64.2222 16.8453 64.5582 17.2C64.9129 17.5547 65.0902 17.984 65.0902 18.488C65.0902 18.992 64.9129 19.4213 64.5582 19.776C64.2222 20.1307 63.7929 20.308 63.2702 20.308ZM68.9308 3.452C68.4641 3.452 68.0721 3.29333 67.7548 2.976C67.4375 2.65867 67.2788 2.276 67.2788 1.828C67.2788 1.38 67.4375 0.997332 67.7548 0.679998C68.0721 0.343999 68.4641 0.176 68.9308 0.176C69.3788 0.176 69.7615 0.343999 70.0788 0.679998C70.3961 0.997332 70.5548 1.38 70.5548 1.828C70.5548 2.276 70.3961 2.65867 70.0788 2.976C69.7615 3.29333 69.3788 3.452 68.9308 3.452ZM67.6988 20V6H70.1348V20H67.6988ZM84.8271 18.236C83.3898 19.6547 81.6445 20.364 79.5911 20.364C77.5378 20.364 75.7925 19.6547 74.3551 18.236C72.9365 16.8173 72.2271 15.072 72.2271 13C72.2271 10.928 72.9365 9.18267 74.3551 7.764C75.7925 6.34533 77.5378 5.636 79.5911 5.636C81.6445 5.636 83.3898 6.34533 84.8271 7.764C86.2645 9.18267 86.9831 10.928 86.9831 13C86.9831 15.072 86.2645 16.8173 84.8271 18.236ZM79.5911 17.984C80.9911 17.984 82.1671 17.508 83.1191 16.556C84.0711 15.604 84.5471 14.4187 84.5471 13C84.5471 11.5813 84.0711 10.396 83.1191 9.444C82.1671 8.492 80.9911 8.016 79.5911 8.016C78.2098 8.016 77.0431 8.492 76.0911 9.444C75.1391 10.396 74.6631 11.5813 74.6631 13C74.6631 14.4187 75.1391 15.604 76.0911 16.556C77.0431 17.508 78.2098 17.984 79.5911 17.984Z" fill="black"/>
</svg>
