<svg width="514" height="501" viewBox="0 0 514 501" fill="none" xmlns="http://www.w3.org/2000/svg">
<rect x="34" y="24" width="472" height="472" fill="white"/>
<g filter="url(#filter0_d)">
<rect x="99" y="136" width="344" height="263" rx="5" fill="#F9F9FA"/>
</g>
<g opacity="0.3" filter="url(#filter1_f)">
<rect x="442.871" y="123.883" width="37.6282" height="45.6914" fill="#A0A0A0"/>
</g>
<rect x="436" y="112" width="51.4004" height="51.4004" rx="10.2801" fill="white"/>
<path fill-rule="evenodd" clip-rule="evenodd" d="M472.453 123.326L472.226 126.686C469.329 123.739 465.33 121.994 461.027 121.994C455.356 121.994 450.212 125.027 447.424 129.846L449.896 131.276C452.178 127.33 456.386 124.85 461.027 124.85C464.76 124.85 468.211 126.453 470.607 129.133H466.739V131.989H474.73L475.302 123.518L472.453 123.326ZM448.914 140.557L461.029 128.442L473.144 140.557L461.029 152.672L448.914 140.557ZM469.105 140.556L461.029 132.48L452.952 140.556L461.029 148.633L469.105 140.556Z" fill="#393939"/>
<g opacity="0.3" filter="url(#filter2_f)">
<rect x="44.8008" y="380.902" width="62.1053" height="75.4136" fill="#A0A0A0"/>
</g>
<rect x="34" y="362" width="84.8364" height="84.8364" rx="16.9673" fill="white"/>
<path fill-rule="evenodd" clip-rule="evenodd" d="M57.5647 380.852H52.8516V427.983H57.5647V380.852ZM99.9831 399.368V409.467C99.9831 411.972 97.7993 413.844 95.27 413.844H64.6346C62.1053 413.844 59.9215 411.972 59.9215 409.467V399.368C59.9215 396.863 62.1053 394.991 64.6346 394.991H95.27C97.7993 394.991 99.9831 396.863 99.9831 399.368ZM64.6343 399.705V409.132H95.2696V399.705H64.6343Z" fill="#FF464E"/>
<g opacity="0.3" filter="url(#filter3_f)">
<rect x="131.078" y="41.6367" width="57.9468" height="70.364" fill="#A0A0A0"/>
</g>
<rect x="121" y="24" width="79.1558" height="79.1558" rx="15.8312" fill="white"/>
<path fill-rule="evenodd" clip-rule="evenodd" d="M140.39 43.7891H180.768C182.976 43.7891 184.766 45.7579 184.766 48.1866V78.9694C184.766 81.3981 182.976 83.367 180.768 83.367H140.39C138.182 83.367 136.393 81.3981 136.393 78.9694V48.1866C136.393 45.7579 138.182 43.7891 140.39 43.7891ZM140.79 48.1872V78.97H180.368V48.1872H140.79ZM147.386 65.7774H158.38V72.3737H156.181V76.7713H164.976V72.3737H162.777V65.7774H173.771V67.9762H178.169V59.1811H173.771V61.3799H162.777V54.7835H164.976V50.386H156.181V54.7835H158.38V61.3799H147.386V59.1811H142.988V67.9762H147.386V65.7774Z" fill="#FFAB5F"/>
<g opacity="0.3" filter="url(#filter4_f)">
<rect x="279.537" y="98.7422" width="51.1244" height="62.0797" fill="#A0A0A0"/>
</g>
<rect x="270" y="83" width="69.8364" height="69.8364" rx="13.9673" fill="white"/>
<path fill-rule="evenodd" clip-rule="evenodd" d="M326.256 131.498C326.256 128.964 324.636 126.808 322.376 126.009V109.828C324.636 109.029 326.256 106.873 326.256 104.339C326.256 101.125 323.65 98.5195 320.436 98.5195C317.902 98.5195 315.747 100.139 314.948 102.399H294.886C294.087 100.139 291.932 98.5195 289.398 98.5195C286.184 98.5195 283.578 101.125 283.578 104.339C283.578 106.873 285.198 109.029 287.458 109.828V126.009C285.198 126.808 283.578 128.964 283.578 131.498C283.578 134.712 286.184 137.318 289.398 137.318C291.932 137.318 294.087 135.698 294.886 133.438H314.948C315.747 135.698 317.902 137.318 320.436 137.318C323.65 137.318 326.256 134.712 326.256 131.498ZM318.497 109.829V126.01C316.843 126.595 315.533 127.905 314.948 129.559H294.887C294.302 127.905 292.992 126.595 291.338 126.01V109.829C292.992 109.244 294.302 107.934 294.887 106.28H314.948C315.533 107.934 316.843 109.244 318.497 109.829ZM289.398 106.28C290.47 106.28 291.338 105.411 291.338 104.34C291.338 103.269 290.47 102.4 289.398 102.4C288.327 102.4 287.458 103.269 287.458 104.34C287.458 105.411 288.327 106.28 289.398 106.28ZM322.377 104.34C322.377 105.411 321.508 106.28 320.437 106.28C319.365 106.28 318.497 105.411 318.497 104.34C318.497 103.269 319.365 102.4 320.437 102.4C321.508 102.4 322.377 103.269 322.377 104.34ZM289.398 133.439C290.47 133.439 291.338 132.57 291.338 131.499C291.338 130.427 290.47 129.559 289.398 129.559C288.327 129.559 287.458 130.427 287.458 131.499C287.458 132.57 288.327 133.439 289.398 133.439ZM322.377 131.499C322.377 132.57 321.508 133.439 320.437 133.439C319.365 133.439 318.497 132.57 318.497 131.499C318.497 130.427 319.365 129.559 320.437 129.559C321.508 129.559 322.377 130.427 322.377 131.499Z" fill="#5F00D9"/>
<rect x="131.869" y="222.869" width="278.262" height="83.2624" fill="#F9F9FA" stroke="#5F00D9" stroke-width="1.73765" stroke-dasharray="7.45 7.45"/>
<path d="M172.695 250.504C176.905 250.504 180.347 251.802 183.021 254.397C185.696 256.992 187.033 260.328 187.033 264.405C187.033 268.457 185.682 271.793 182.982 274.414C180.307 277.009 176.878 278.307 172.695 278.307H161.455V250.504H172.695ZM172.337 271.277C174.376 271.277 176.031 270.641 177.302 269.37C178.573 268.099 179.208 266.431 179.208 264.366C179.208 262.327 178.573 260.685 177.302 259.441C176.058 258.17 174.403 257.534 172.337 257.534H169.12V271.277H172.337ZM212.775 267.384C212.775 267.993 212.722 268.642 212.616 269.33H196.689C196.927 270.548 197.417 271.475 198.158 272.111C198.926 272.746 199.893 273.064 201.058 273.064C201.64 273.064 202.183 272.984 202.686 272.826C203.189 272.667 203.626 272.442 203.997 272.15C204.394 271.833 204.712 271.462 204.95 271.038H212.298C211.557 273.501 210.166 275.447 208.128 276.877C206.115 278.307 203.759 279.022 201.058 279.022C197.722 279.022 194.941 277.936 192.717 275.765C190.519 273.567 189.421 270.84 189.421 267.583C189.421 265.412 189.924 263.452 190.93 261.705C191.936 259.957 193.326 258.593 195.1 257.614C196.874 256.634 198.86 256.144 201.058 256.144C203.335 256.144 205.361 256.647 207.135 257.653C208.935 258.633 210.325 259.984 211.305 261.705C212.285 263.399 212.775 265.292 212.775 267.384ZM201.058 261.943C199.999 261.943 199.098 262.234 198.357 262.817C197.642 263.373 197.126 264.18 196.808 265.24H205.506C204.844 263.042 203.361 261.943 201.058 261.943ZM224.397 279.022C221.484 279.022 219.181 278.32 217.486 276.917C215.818 275.513 214.971 273.633 214.944 271.277H222.054C222.054 272.018 222.279 272.587 222.729 272.984C223.179 273.382 223.775 273.58 224.516 273.58C224.887 273.58 225.231 273.527 225.549 273.421C225.866 273.289 226.118 273.09 226.303 272.826C226.515 272.561 226.621 272.256 226.621 271.912C226.621 271.515 226.436 271.184 226.065 270.919C225.721 270.654 225.324 270.469 224.874 270.363C224.423 270.231 223.775 270.098 222.927 269.966C222.107 269.834 221.405 269.701 220.822 269.569C220.266 269.436 219.604 269.211 218.836 268.894C218.069 268.549 217.446 268.152 216.97 267.702C216.493 267.252 216.083 266.643 215.738 265.875C215.394 265.107 215.222 264.22 215.222 263.214C215.222 261.069 216.056 259.361 217.724 258.09C219.393 256.793 221.603 256.144 224.357 256.144C227.085 256.144 229.269 256.806 230.911 258.13C232.579 259.454 233.426 261.215 233.453 263.413H226.542C226.542 262.962 226.436 262.592 226.224 262.3C226.039 261.983 225.774 261.758 225.43 261.625C225.112 261.466 224.728 261.387 224.278 261.387C223.669 261.387 223.179 261.533 222.808 261.824C222.464 262.115 222.292 262.499 222.292 262.976C222.292 263.187 222.332 263.373 222.411 263.532C222.49 263.691 222.623 263.836 222.808 263.969C223.02 264.074 223.205 264.167 223.364 264.247C223.523 264.326 223.775 264.405 224.119 264.485C224.49 264.564 224.781 264.631 224.993 264.683C225.205 264.71 225.536 264.763 225.986 264.842C226.542 264.948 226.926 265.028 227.137 265.081C227.376 265.107 227.773 265.187 228.329 265.319C228.885 265.451 229.295 265.571 229.56 265.676C229.825 265.756 230.182 265.901 230.633 266.113C231.109 266.325 231.467 266.537 231.705 266.749C231.943 266.961 232.221 267.239 232.539 267.583C232.883 267.901 233.135 268.245 233.294 268.616C233.453 268.986 233.585 269.436 233.691 269.966C233.823 270.469 233.889 271.012 233.889 271.594C233.889 273.845 233.016 275.646 231.268 276.996C229.547 278.346 227.257 279.022 224.397 279.022ZM237.392 254.158V247.923H244.66V254.158H237.392ZM237.352 278.307V256.859H244.74V278.307H237.352ZM266.534 256.859H271.538V275.924C271.538 279.286 270.506 281.947 268.44 283.907C266.375 285.866 263.582 286.846 260.06 286.846C258.021 286.846 256.207 286.515 254.619 285.853C253.03 285.218 251.733 284.278 250.726 283.033C249.72 281.815 249.045 280.372 248.701 278.704H255.85C256.088 279.392 256.591 279.922 257.359 280.293C258.154 280.69 259.027 280.888 259.981 280.888C261.252 280.888 262.311 280.504 263.158 279.736C264.005 278.995 264.429 278.002 264.429 276.758V276.122C262.734 277.208 260.868 277.751 258.829 277.751C255.757 277.751 253.202 276.731 251.163 274.692C249.124 272.627 248.105 270.045 248.105 266.947C248.105 263.902 249.124 261.347 251.163 259.282C253.229 257.217 255.784 256.184 258.829 256.184C261.397 256.184 263.661 257.005 265.62 258.646L266.534 256.859ZM260.06 271.674C261.384 271.674 262.47 271.237 263.317 270.363C264.191 269.463 264.628 268.324 264.628 266.947C264.628 265.597 264.191 264.485 263.317 263.611C262.47 262.737 261.384 262.3 260.06 262.3C258.736 262.3 257.637 262.737 256.763 263.611C255.916 264.485 255.492 265.597 255.492 266.947C255.492 268.324 255.916 269.463 256.763 270.363C257.637 271.237 258.736 271.674 260.06 271.674ZM289.164 256.224C291.653 256.224 293.639 257.044 295.122 258.686C296.631 260.328 297.386 262.512 297.386 265.24V278.307H289.998V266.232C289.998 263.744 289.072 262.499 287.218 262.499C286.45 262.499 285.788 262.671 285.232 263.015C284.703 263.36 284.292 263.863 284.001 264.525C283.736 265.16 283.604 265.941 283.604 266.868V278.307H276.216V256.859H281.38L282.412 259.083C284.107 257.177 286.358 256.224 289.164 256.224Z" fill="#FF464E"/>
<circle cx="410.447" cy="222.447" r="7.44706" fill="#5F00D9"/>
<circle cx="131.447" cy="222.447" r="7.44706" fill="#5F00D9"/>
<circle cx="131.447" cy="306.847" r="7.44706" fill="#5F00D9"/>
<circle cx="410.447" cy="306.847" r="7.44706" fill="#5F00D9"/>
<g opacity="0.3" filter="url(#filter5_f)">
<rect x="199.143" y="385.572" width="199.179" height="42.4286" fill="#A0A0A0"/>
</g>
<g clip-path="url(#clip0)">
<rect x="185" y="362" width="227.464" height="58.9286" fill="white"/>
<rect x="185" y="362" width="227.464" height="58.9286" fill="white"/>
<rect x="288.715" y="376.143" width="109.607" height="30.6429" rx="8.25" fill="#F9F9FA"/>
<path d="M338.608 399H341.083V384.883H338.588L334.9 387.476V389.794L338.549 387.29H338.608V399ZM351.12 399H353.527V396.29H355.444V394.216H353.527V384.883H349.937C346.875 389.334 345.299 391.839 344.077 394.138V396.29H351.12V399ZM346.346 394.206C347.471 392.152 348.841 390.029 351.12 386.761H351.159V394.275H346.346V394.206Z" fill="#393939"/>
<rect x="199.143" y="376.143" width="30.6429" height="30.6429" rx="8.25" fill="#F9F9FA"/>
<path fill-rule="evenodd" clip-rule="evenodd" d="M218.235 390.91C220.01 391.575 221.274 393.288 221.274 395.295C221.274 397.881 219.178 399.977 216.593 399.977H209.357V382.953H214.89C217.476 382.953 219.572 385.049 219.572 387.635C219.572 388.91 219.062 390.066 218.235 390.91ZM214.892 390.615C216.537 390.615 217.871 389.281 217.871 387.636C217.871 385.991 216.537 384.657 214.892 384.657H211.061V390.615H214.892ZM211.061 398.276V392.318H216.594C218.239 392.318 219.573 393.651 219.573 395.297C219.573 396.942 218.239 398.276 216.594 398.276H211.061Z" fill="#393939"/>
<rect x="243.928" y="376.143" width="30.6429" height="30.6429" rx="8.25" fill="#F9F9FA"/>
<path d="M261.637 384.656L258.61 398.275H261.805V399.977H253.719V398.275H256.866L259.893 384.656H257.124V382.953H265.21V384.656H261.637Z" fill="#393939"/>
<rect x="367.678" y="376.143" width="30.6429" height="30.6429" rx="8.25" fill="#F9F9FA"/>
<path fill-rule="evenodd" clip-rule="evenodd" d="M383.004 400.83C377.833 400.83 373.641 396.638 373.641 391.467C373.641 386.296 377.833 382.104 383.004 382.104C388.175 382.104 392.367 386.296 392.367 391.467C392.367 396.638 388.175 400.83 383.004 400.83ZM383.002 399.126C387.233 399.126 390.663 395.696 390.663 391.465C390.663 387.234 387.233 383.805 383.002 383.805C378.772 383.805 375.342 387.234 375.342 391.465C375.342 395.696 378.772 399.126 383.002 399.126ZM387.26 390.615H383.855V387.211H382.152V390.615H378.748V392.318H382.152V395.722H383.855V392.318H387.26V390.615Z" fill="#393939"/>
<rect x="288.715" y="376.143" width="30.6429" height="30.6429" rx="8.25" fill="#F9F9FA"/>
<path fill-rule="evenodd" clip-rule="evenodd" d="M304.039 400.83C298.868 400.83 294.676 396.638 294.676 391.467C294.676 386.296 298.868 382.104 304.039 382.104C309.21 382.104 313.402 386.296 313.402 391.467C313.402 396.638 309.21 400.83 304.039 400.83ZM304.038 399.126C308.268 399.126 311.698 395.696 311.698 391.465C311.698 387.234 308.268 383.805 304.038 383.805C299.807 383.805 296.377 387.234 296.377 391.465C296.377 395.696 299.807 399.126 304.038 399.126ZM299.783 390.615V392.317H308.295V390.615H299.783Z" fill="#393939"/>
</g>
<g opacity="0.3" filter="url(#filter6_f)">
<rect x="472.986" y="368.264" width="28.4471" height="37.0675" fill="#A0A0A0"/>
</g>
<rect x="468.731" y="362.731" width="36.5385" height="36.5385" rx="9.5" fill="#FF464E" stroke="#EFEFEF" stroke-width="1.46154"/>
<defs>
<filter id="filter0_d" x="85" y="126" width="372" height="291" filterUnits="userSpaceOnUse" color-interpolation-filters="sRGB">
<feFlood flood-opacity="0" result="BackgroundImageFix"/>
<feColorMatrix in="SourceAlpha" type="matrix" values="0 0 0 0 0 0 0 0 0 0 0 0 0 0 0 0 0 0 127 0"/>
<feOffset dy="4"/>
<feGaussianBlur stdDeviation="7"/>
<feColorMatrix type="matrix" values="0 0 0 0 0 0 0 0 0 0 0 0 0 0 0 0 0 0 0.07 0"/>
<feBlend mode="normal" in2="BackgroundImageFix" result="effect1_dropShadow"/>
<feBlend mode="normal" in="SourceGraphic" in2="effect1_dropShadow" result="shape"/>
</filter>
<filter id="filter1_f" x="415.915" y="96.9265" width="91.5408" height="99.604" filterUnits="userSpaceOnUse" color-interpolation-filters="sRGB">
<feFlood flood-opacity="0" result="BackgroundImageFix"/>
<feBlend mode="normal" in="SourceGraphic" in2="BackgroundImageFix" result="shape"/>
<feGaussianBlur stdDeviation="13.4782" result="effect1_foregroundBlur"/>
</filter>
<filter id="filter2_f" x="0.309364" y="336.411" width="151.088" height="164.396" filterUnits="userSpaceOnUse" color-interpolation-filters="sRGB">
<feFlood flood-opacity="0" result="BackgroundImageFix"/>
<feBlend mode="normal" in="SourceGraphic" in2="BackgroundImageFix" result="shape"/>
<feGaussianBlur stdDeviation="22.2457" result="effect1_foregroundBlur"/>
</filter>
<filter id="filter3_f" x="89.5658" y="0.12439" width="140.971" height="153.389" filterUnits="userSpaceOnUse" color-interpolation-filters="sRGB">
<feFlood flood-opacity="0" result="BackgroundImageFix"/>
<feBlend mode="normal" in="SourceGraphic" in2="BackgroundImageFix" result="shape"/>
<feGaussianBlur stdDeviation="20.7562" result="effect1_foregroundBlur"/>
</filter>
<filter id="filter4_f" x="242.912" y="62.1173" width="124.374" height="135.329" filterUnits="userSpaceOnUse" color-interpolation-filters="sRGB">
<feFlood flood-opacity="0" result="BackgroundImageFix"/>
<feBlend mode="normal" in="SourceGraphic" in2="BackgroundImageFix" result="shape"/>
<feGaussianBlur stdDeviation="18.3124" result="effect1_foregroundBlur"/>
</filter>
<filter id="filter5_f" x="147.285" y="333.715" width="302.893" height="146.143" filterUnits="userSpaceOnUse" color-interpolation-filters="sRGB">
<feFlood flood-opacity="0" result="BackgroundImageFix"/>
<feBlend mode="normal" in="SourceGraphic" in2="BackgroundImageFix" result="shape"/>
<feGaussianBlur stdDeviation="25.9286" result="effect1_foregroundBlur"/>
</filter>
<filter id="filter6_f" x="461.213" y="356.491" width="51.9928" height="60.6132" filterUnits="userSpaceOnUse" color-interpolation-filters="sRGB">
<feFlood flood-opacity="0" result="BackgroundImageFix"/>
<feBlend mode="normal" in="SourceGraphic" in2="BackgroundImageFix" result="shape"/>
<feGaussianBlur stdDeviation="5.88643" result="effect1_foregroundBlur"/>
</filter>
<clipPath id="clip0">
<rect x="185" y="362" width="227.464" height="58.9286" fill="white"/>
</clipPath>
</defs>
</svg>
