<svg width="861" height="452" viewBox="0 0 861 452" fill="none" xmlns="http://www.w3.org/2000/svg">
<g filter="url(#filter0_d)">
<rect x="128" y="23" width="631" height="338" rx="9" fill="#F9F9FA"/>
<rect x="127" y="20" width="148" height="341" fill="white"/>
<rect x="275" y="20" width="484" height="46" fill="white"/>
<rect x="275" y="315" width="484" height="46" fill="white"/>
</g>
<rect x="405.5" y="266.5" width="130" height="223" rx="4.5" transform="rotate(-90 405.5 266.5)" fill="white" stroke="#FF464E"/>
<rect x="424" y="154" width="83" height="30" fill="#F9F9FA"/>
<rect x="424" y="198" width="179" height="49" fill="#F9F9FA"/>
<rect x="138" y="83" width="39" height="39" fill="#F9F9FA"/>
<rect x="138" y="127" width="39" height="39" fill="#F9F9FA"/>
<rect x="138" y="171" width="39" height="39" fill="#F9F9FA"/>
<rect x="138" y="215" width="39" height="39" fill="#F9F9FA"/>
<rect x="138" y="259" width="39" height="39" fill="#F9F9FA"/>
<rect x="138" y="303" width="39" height="39" fill="#F9F9FA"/>
<rect x="182" y="83" width="39" height="39" fill="#F9F9FA"/>
<rect x="138" y="46" width="127" height="20" fill="#F9F9FA"/>
<rect x="182" y="127" width="39" height="39" fill="#F9F9FA"/>
<rect x="182" y="171" width="39" height="39" fill="#F9F9FA"/>
<rect x="182" y="215" width="39" height="39" fill="#F9F9FA"/>
<rect x="182" y="259" width="39" height="39" fill="#F9F9FA"/>
<rect x="182" y="303" width="39" height="39" fill="#F9F9FA"/>
<rect x="226" y="83" width="39" height="39" fill="#F9F9FA"/>
<rect x="226" y="127" width="39" height="39" fill="#F9F9FA"/>
<rect x="226" y="171" width="39" height="39" fill="#F9F9FA"/>
<rect x="226" y="215" width="39" height="39" fill="#F9F9FA"/>
<rect x="226" y="259" width="39" height="39" fill="#F9F9FA"/>
<rect x="226" y="303" width="39" height="39" fill="#F9F9FA"/>
<g opacity="0.3" filter="url(#filter1_f)">
<rect x="44" y="142" width="136" height="213" fill="#A0A0A0"/>
</g>
<g clip-path="url(#clip0)">
<rect x="27" y="122" width="171" height="214" rx="5" fill="white"/>
<rect x="27" y="122" width="171.301" height="138.112" fill="white"/>
<line x1="27" y1="202.029" x2="198.301" y2="202.029" stroke="#EBEBEB" stroke-width="0.535316"/>
<line x1="27" y1="175.264" x2="198.301" y2="175.264" stroke="#EBEBEB" stroke-width="0.535316"/>
<line x1="27" y1="148.498" x2="198.301" y2="148.498" stroke="#EBEBEB" stroke-width="0.535316"/>
<line x1="27" y1="228.795" x2="198.301" y2="228.795" stroke="#EBEBEB" stroke-width="0.535316"/>
<line x1="27" y1="255.56" x2="198.301" y2="255.56" stroke="#EBEBEB" stroke-width="0.535316"/>
<line x1="27" y1="282.328" x2="198.301" y2="282.328" stroke="#EBEBEB" stroke-width="0.535316"/>
<line x1="27" y1="309.094" x2="198.301" y2="309.094" stroke="#EBEBEB" stroke-width="0.535316"/>
<circle cx="184.382" cy="242.447" r="4.01487" fill="white" stroke="#FF464E" stroke-width="0.535316"/>
<circle cx="184.382" cy="188.915" r="4.01487" fill="white" stroke="#FF464E" stroke-width="0.535316"/>
<circle cx="184.382" cy="162.148" r="4.01487" fill="white" stroke="#FF464E" stroke-width="0.535316"/>
<circle cx="184.382" cy="269.212" r="4.01487" fill="white" stroke="#FF464E" stroke-width="0.535316"/>
<circle cx="184.382" cy="296.513" r="4.01487" fill="white" stroke="#FF464E" stroke-width="0.535316"/>
<circle cx="184.382" cy="322.743" r="4.01487" fill="white" stroke="#FF464E" stroke-width="0.535316"/>
<circle cx="184.382" cy="215.681" r="4.01487" fill="white" stroke="#FF464E" stroke-width="0.535316"/>
<circle cx="184.384" cy="215.68" r="2.40892" fill="#FF464E" stroke="#FF464E" stroke-width="0.535316"/>
<circle cx="184.382" cy="135.382" r="4.01487" fill="white" stroke="#FF464E" stroke-width="0.535316"/>
<circle cx="184.384" cy="135.384" r="2.40892" fill="#FF464E" stroke="#FF464E" stroke-width="0.535316"/>
<rect x="33.4238" y="208.721" width="13.9182" height="13.9182" rx="3.74721" fill="#F9F9FA"/>
<path fill-rule="evenodd" clip-rule="evenodd" d="M37.2908 211.814H43.4767C43.9037 211.814 44.2499 212.161 44.2499 212.588V218.774C44.2499 219.201 43.9037 219.547 43.4767 219.547H37.2908C36.8638 219.547 36.5176 219.201 36.5176 218.774V212.588C36.5176 212.161 36.8638 211.814 37.2908 211.814ZM37.2902 212.587V218.773H43.4761V212.587H37.2902ZM40.048 215.682H40.7698V218H41.5431V215.682H42.3095V214.909H41.5431V214.52C41.5431 214.307 41.7162 214.134 41.9297 214.134H42.3163V213.36H41.9297C41.2891 213.36 40.7698 213.88 40.7698 214.52V214.909H40.048V215.682Z" fill="#393939"/>
<rect x="33.4238" y="235.486" width="13.9182" height="13.9182" rx="3.74721" fill="#F9F9FA"/>
<path fill-rule="evenodd" clip-rule="evenodd" d="M41.9302 238.58H38.8373C37.5561 238.58 36.5176 239.619 36.5176 240.9V243.993C36.5176 245.274 37.5561 246.312 38.8373 246.312H41.9302C43.2114 246.312 44.2499 245.274 44.2499 243.993V240.9C44.2499 239.619 43.2114 238.58 41.9302 238.58ZM37.2902 240.899C37.2902 240.045 37.9826 239.353 38.8367 239.353H41.9296C42.7837 239.353 43.4761 240.045 43.4761 240.899V243.992C43.4761 244.846 42.7837 245.539 41.9296 245.539H38.8367C37.9826 245.539 37.2902 244.846 37.2902 243.992V240.899ZM40.3828 244.378C39.3152 244.378 38.4497 243.513 38.4497 242.445C38.4497 241.378 39.3152 240.512 40.3828 240.512C41.4504 240.512 42.3159 241.378 42.3159 242.445C42.3159 243.513 41.4504 244.378 40.3828 244.378ZM40.3833 243.606C41.0239 243.606 41.5431 243.086 41.5431 242.446C41.5431 241.805 41.0239 241.286 40.3833 241.286C39.7427 241.286 39.2234 241.805 39.2234 242.446C39.2234 243.086 39.7427 243.606 40.3833 243.606ZM42.7032 240.513C42.7032 240.726 42.5302 240.899 42.3166 240.899C42.1031 240.899 41.93 240.726 41.93 240.513C41.93 240.299 42.1031 240.126 42.3166 240.126C42.5302 240.126 42.7032 240.299 42.7032 240.513Z" fill="#393939"/>
<rect x="33.4238" y="262.252" width="13.9182" height="13.9182" rx="3.74721" fill="#F9F9FA"/>
<path fill-rule="evenodd" clip-rule="evenodd" d="M43.9076 266.315L44.4545 266.379L44.2087 266.872C44.0888 267.112 43.9687 267.353 43.8486 267.593C43.8344 267.644 43.8093 267.688 43.7723 267.747C43.7568 267.771 43.704 267.848 43.7015 267.852C43.6875 267.873 43.6772 267.889 43.6698 267.902V268.826C43.6698 271.189 41.3829 272.69 39.2233 272.69C38.7814 272.69 38.4456 272.669 38.0612 272.585C37.4285 272.447 36.9576 272.173 36.7422 271.693L36.5203 271.199L37.0594 271.15C37.5471 271.105 37.97 271.012 38.2947 270.888C37.4032 270.744 36.9036 270.353 36.9036 269.617V269.231H37.2903C37.3752 269.231 37.4518 269.224 37.5203 269.211C36.8512 268.811 36.5161 268.169 36.5161 267.279C36.516 267.241 36.516 267.241 36.5158 267.201C36.5133 266.752 36.5374 266.513 36.6602 266.207C36.7389 266.01 36.8527 265.829 37.0058 265.663L37.2976 265.346L37.5812 265.67C38.516 266.738 39.44 267.386 40.3834 267.465C40.3874 266.479 41.1324 265.733 42.1232 265.733C42.5852 265.733 43.0041 265.908 43.3334 266.224C43.5136 266.261 43.705 266.292 43.9076 266.315ZM43.0535 266.955L42.935 266.928L42.8531 266.839C42.6552 266.621 42.4068 266.507 42.124 266.507C41.5584 266.507 41.1573 266.91 41.1573 267.473C41.1573 267.565 41.155 267.623 41.1435 267.699C41.0977 268.003 40.9275 268.246 40.5774 268.246C39.4183 268.246 38.3726 267.625 37.3529 266.565C37.3004 266.725 37.288 266.889 37.2897 267.197C37.29 267.238 37.29 267.238 37.2901 267.28C37.2901 268.072 37.6108 268.505 38.3704 268.746L38.6399 268.832V269.115C38.6399 269.457 38.315 269.78 37.8396 269.925C38.0575 270.09 38.5032 270.179 39.2242 270.179H39.6108V270.566C39.6108 271.12 38.9743 271.554 38.0128 271.78C38.3264 271.876 38.7439 271.918 39.224 271.918C41.008 271.918 42.8973 270.677 42.8973 268.826V267.86C42.8973 267.746 42.9302 267.648 42.9849 267.545C43.0063 267.505 43.0298 267.467 43.0589 267.423C43.0644 267.415 43.0847 267.385 43.1008 267.361L43.1314 267.3C43.1811 267.201 43.2307 267.102 43.2803 267.002C43.2032 266.988 43.1276 266.972 43.0535 266.955Z" fill="#393939"/>
<rect x="33.4238" y="315.785" width="13.9182" height="13.9182" rx="3.74721" fill="#F9F9FA"/>
<path fill-rule="evenodd" clip-rule="evenodd" d="M37.2889 318.877H43.4747C43.9018 318.877 44.248 319.223 44.248 319.65V325.836C44.248 326.263 43.9018 326.609 43.4747 326.609H37.2889C36.8618 326.609 36.5156 326.263 36.5156 325.836V319.65C36.5156 319.223 36.8618 318.877 37.2889 318.877ZM37.2883 319.65V325.835H43.4742V319.65H37.2883ZM40.7679 321.582C40.5677 321.582 40.3562 321.644 40.1694 321.757L39.9946 321.582H39.608V324.289H40.3812V322.742C40.3812 322.52 40.6109 322.356 40.7679 322.356H41.1545C41.3115 322.356 41.5411 322.52 41.5411 322.742V324.289H42.3143V322.742C42.3143 322.026 41.6934 321.582 41.1545 321.582H40.7679ZM38.8351 321.196C39.0486 321.196 39.2217 321.023 39.2217 320.81C39.2217 320.596 39.0486 320.423 38.8351 320.423C38.6216 320.423 38.4485 320.596 38.4485 320.81C38.4485 321.023 38.6216 321.196 38.8351 321.196ZM38.4485 321.582V324.289H39.2217V321.582H38.4485Z" fill="#393939"/>
<rect x="33.4238" y="289.02" width="13.9182" height="13.9182" rx="3.74721" fill="#F9F9FA"/>
<path fill-rule="evenodd" clip-rule="evenodd" d="M44.2574 298.347C44.5216 297.894 44.6345 297.164 44.6345 295.977C44.6345 294.794 44.5227 294.068 44.2557 293.603C43.9881 293.12 43.6708 292.967 43.041 292.93C42.611 292.901 41.5424 292.885 40.3827 292.885C39.2205 292.885 38.1515 292.901 37.7183 292.931C37.092 292.967 36.7746 293.121 36.5047 293.605C36.2416 294.068 36.1289 294.798 36.1289 295.981C36.1289 297.158 36.2421 297.891 36.507 298.352C36.7734 298.83 37.0858 298.982 37.7174 299.026C38.1713 299.053 39.3009 299.071 40.3827 299.071C41.4621 299.071 42.5912 299.053 43.041 299.027C43.6784 298.982 43.9907 298.83 44.2574 298.347ZM42.9917 293.703C43.3857 293.726 43.4587 293.761 43.5836 293.987C43.7654 294.302 43.8607 294.918 43.8607 295.981C43.8607 297.037 43.7649 297.656 43.5844 297.966C43.4591 298.192 43.3866 298.228 42.9908 298.256C42.5651 298.28 41.447 298.298 40.3821 298.298C39.3149 298.298 38.1962 298.28 37.7664 298.255C37.3756 298.228 37.302 298.192 37.1794 297.972C36.9978 297.656 36.9016 297.032 36.9016 295.977C36.9016 294.922 36.9973 294.303 37.178 293.985C37.3024 293.761 37.3765 293.726 37.7665 293.703C38.1794 293.675 39.2384 293.658 40.3821 293.658C41.5235 293.658 42.582 293.675 42.9917 293.703ZM39.6083 294.817L41.5414 295.977L39.6083 297.137V294.817Z" fill="#393939"/>
<path d="M54.8854 217.934V216.039H56.8301V215.446H54.8854V214.013H57.0089V213.407H54.1828V217.934H54.8854ZM58.3106 217.99C58.7434 217.99 59.1606 217.758 59.3519 217.391H59.3676V217.934H60.0169V215.66C60.0169 214.998 59.5056 214.574 58.7058 214.574C57.8903 214.574 57.3821 215.013 57.3445 215.609H57.9844C58.044 215.315 58.2886 215.126 58.6807 215.126C59.0947 215.126 59.3425 215.346 59.3425 215.713V215.967L58.4392 216.02C57.655 216.064 57.2128 216.419 57.2128 216.996C57.2128 217.589 57.6644 217.99 58.3106 217.99ZM58.4988 217.454C58.1349 217.454 57.8965 217.265 57.8965 216.977C57.8965 216.695 58.1255 216.516 58.5301 216.488L59.3425 216.437V216.698C59.3425 217.127 58.9724 217.454 58.4988 217.454ZM63.508 215.769C63.4484 215.12 62.9308 214.574 62.0808 214.574C61.1429 214.574 60.5282 215.236 60.5282 216.284C60.5282 217.35 61.1429 217.996 62.0871 217.996C62.8806 217.996 63.4421 217.52 63.5142 216.817H62.8618C62.7834 217.2 62.5105 217.429 62.0933 217.429C61.5664 217.429 61.2182 217.008 61.2182 216.284C61.2182 215.575 61.5633 215.139 62.0871 215.139C62.5293 215.139 62.7928 215.418 62.8618 215.769H63.508ZM66.1804 216.964C66.0894 217.253 65.804 217.447 65.4182 217.447C64.8755 217.447 64.5305 217.068 64.5305 216.494V216.453H66.861V216.221C66.861 215.22 66.2901 214.574 65.3742 214.574C64.4427 214.574 63.8467 215.264 63.8467 216.299C63.8467 217.341 64.4333 217.996 65.4025 217.996C66.1584 217.996 66.7293 217.567 66.8234 216.964H66.1804ZM65.3742 215.12C65.8479 215.12 66.1678 215.474 66.1835 215.979H64.5336C64.5681 215.481 64.9006 215.12 65.3742 215.12ZM69.1445 217.99C69.9819 217.99 70.5214 217.331 70.5214 216.284C70.5214 215.239 69.9788 214.581 69.1476 214.581C68.6802 214.581 68.3038 214.813 68.1062 215.195H68.0906V213.407H67.413V217.934H68.0717V217.372H68.0843C68.2882 217.755 68.6614 217.99 69.1445 217.99ZM68.9625 215.151C69.4958 215.151 69.8251 215.591 69.8251 216.284C69.8251 216.983 69.4958 217.416 68.9625 217.416C68.4481 217.416 68.0874 216.971 68.0874 216.284C68.0874 215.603 68.4481 215.151 68.9625 215.151ZM72.4693 217.996C73.4134 217.996 74.0344 217.347 74.0344 216.284C74.0344 215.224 73.4103 214.574 72.4693 214.574C71.5283 214.574 70.9041 215.224 70.9041 216.284C70.9041 217.347 71.5252 217.996 72.4693 217.996ZM72.4693 217.438C71.9392 217.438 71.5942 217.018 71.5942 216.284C71.5942 215.553 71.9392 215.133 72.4693 215.133C72.9994 215.133 73.3444 215.553 73.3444 216.284C73.3444 217.018 73.0025 217.438 72.4693 217.438ZM75.976 217.996C76.9201 217.996 77.5412 217.347 77.5412 216.284C77.5412 215.224 76.917 214.574 75.976 214.574C75.035 214.574 74.4108 215.224 74.4108 216.284C74.4108 217.347 75.0319 217.996 75.976 217.996ZM75.976 217.438C75.4459 217.438 75.1009 217.018 75.1009 216.284C75.1009 215.553 75.4459 215.133 75.976 215.133C76.5061 215.133 76.8511 215.553 76.8511 216.284C76.8511 217.018 76.5092 217.438 75.976 217.438ZM78.7739 216.048H78.7676V213.407H78.0901V217.934H78.7676V216.748L79.0499 216.469L80.1697 217.934H80.957L79.5361 216.055L80.9036 214.634H80.1069L78.7739 216.048Z" fill="#393939"/>
<path d="M58.0816 189.286V188.825H56.2185V189.393H57.3884V189.471C57.379 190.158 56.8709 190.628 56.1369 190.628C55.2743 190.628 54.738 189.96 54.738 188.878C54.738 187.815 55.2587 187.181 56.1244 187.181C56.714 187.181 57.1563 187.504 57.3257 188.066H58.0471C57.8903 187.163 57.1281 186.567 56.1212 186.567C54.8321 186.567 54.0197 187.457 54.0197 188.885C54.0197 190.337 54.8352 191.243 56.1306 191.243C57.3571 191.243 58.0816 190.512 58.0816 189.286ZM60.8732 190.199C60.7822 190.487 60.4968 190.682 60.111 190.682C59.5684 190.682 59.2233 190.302 59.2233 189.728V189.687H61.5538V189.455C61.5538 188.455 60.983 187.809 60.0671 187.809C59.1355 187.809 58.5396 188.499 58.5396 189.534C58.5396 190.575 59.1261 191.231 60.0953 191.231C60.8512 191.231 61.4221 190.801 61.5162 190.199H60.8732ZM60.0671 188.354C60.5407 188.354 60.8607 188.709 60.8763 189.214H59.2265C59.261 188.715 59.5935 188.354 60.0671 188.354ZM63.4985 191.231C64.4427 191.231 65.0637 190.581 65.0637 189.518C65.0637 188.458 64.4395 187.809 63.4985 187.809C62.5576 187.809 61.9334 188.458 61.9334 189.518C61.9334 190.581 62.5544 191.231 63.4985 191.231ZM63.4985 190.672C62.9685 190.672 62.6234 190.252 62.6234 189.518C62.6234 188.787 62.9685 188.367 63.4985 188.367C64.0286 188.367 64.3737 188.787 64.3737 189.518C64.3737 190.252 64.0318 190.672 63.4985 190.672ZM65.6126 191.168H66.2901V186.642H65.6126V191.168ZM68.4042 191.231C69.3483 191.231 69.9694 190.581 69.9694 189.518C69.9694 188.458 69.3452 187.809 68.4042 187.809C67.4632 187.809 66.839 188.458 66.839 189.518C66.839 190.581 67.4601 191.231 68.4042 191.231ZM68.4042 190.672C67.8741 190.672 67.5291 190.252 67.5291 189.518C67.5291 188.787 67.8741 188.367 68.4042 188.367C68.9343 188.367 69.2793 188.787 69.2793 189.518C69.2793 190.252 68.9374 190.672 68.4042 190.672ZM73.3256 189.004C73.266 188.354 72.7484 187.809 71.8984 187.809C70.9606 187.809 70.3458 188.47 70.3458 189.518C70.3458 190.585 70.9606 191.231 71.9047 191.231C72.6982 191.231 73.2597 190.754 73.3318 190.051H72.6794C72.601 190.434 72.3281 190.663 71.911 190.663C71.384 190.663 71.0358 190.243 71.0358 189.518C71.0358 188.809 71.3809 188.373 71.9047 188.373C72.3469 188.373 72.6104 188.652 72.6794 189.004H73.3256ZM74.7778 191.224C75.2107 191.224 75.6278 190.992 75.8192 190.625H75.8349V191.168H76.4841V188.894C76.4841 188.232 75.9729 187.809 75.173 187.809C74.3575 187.809 73.8494 188.248 73.8117 188.844H74.4516C74.5112 188.549 74.7559 188.361 75.1479 188.361C75.562 188.361 75.8098 188.58 75.8098 188.947V189.201L74.9064 189.255C74.1223 189.299 73.68 189.653 73.68 190.23C73.68 190.823 74.1317 191.224 74.7778 191.224ZM74.966 190.688C74.6022 190.688 74.3638 190.5 74.3638 190.211C74.3638 189.929 74.5928 189.75 74.9974 189.722L75.8098 189.672V189.932C75.8098 190.362 75.4396 190.688 74.966 190.688ZM77.3404 187.087V187.868H76.8605V188.405H77.3404V190.299C77.3404 190.936 77.6008 191.19 78.2689 191.19C78.4194 191.19 78.57 191.177 78.6453 191.159V190.622C78.6014 190.632 78.4916 190.638 78.4226 190.638C78.1466 190.638 78.0211 190.509 78.0211 190.224V188.405H78.6484V187.868H78.0211V187.087H77.3404ZM79.5674 187.335C79.7839 187.335 79.9564 187.159 79.9564 186.946C79.9564 186.73 79.7839 186.557 79.5674 186.557C79.351 186.557 79.1754 186.73 79.1754 186.946C79.1754 187.159 79.351 187.335 79.5674 187.335ZM79.2287 191.168H79.9062V187.868H79.2287V191.168ZM82.0171 191.231C82.9613 191.231 83.5823 190.581 83.5823 189.518C83.5823 188.458 82.9581 187.809 82.0171 187.809C81.0762 187.809 80.452 188.458 80.452 189.518C80.452 190.581 81.073 191.231 82.0171 191.231ZM82.0171 190.672C81.487 190.672 81.142 190.252 81.142 189.518C81.142 188.787 81.487 188.367 82.0171 188.367C82.5472 188.367 82.8923 188.787 82.8923 189.518C82.8923 190.252 82.5504 190.672 82.0171 190.672ZM84.1061 191.168H84.7836V189.245C84.7836 188.734 85.091 188.395 85.5678 188.395C86.0383 188.395 86.2704 188.668 86.2704 189.164V191.168H86.951V189.032C86.951 188.276 86.5339 187.812 85.8062 187.812C85.298 187.812 84.9467 188.044 84.7679 188.42H84.7523V187.868H84.1061V191.168Z" fill="#393939"/>
<path d="M57.0559 163.794H54.8854V162.389H56.9399V161.805H54.8854V160.482H57.0559V159.876H54.1828V164.402H57.0559V163.794ZM57.6958 164.402H58.3733V162.364C58.3733 161.94 58.6587 161.626 59.0602 161.626C59.4429 161.626 59.6844 161.868 59.6844 162.247V164.402H60.3494V162.342C60.3494 161.924 60.6285 161.626 61.03 161.626C61.4315 161.626 61.6605 161.871 61.6605 162.298V164.402H62.3411V162.135C62.3411 161.479 61.9146 161.046 61.2621 161.046C60.7916 161.046 60.4027 161.291 60.2333 161.692H60.2176C60.0859 161.281 59.7534 161.046 59.2955 161.046C58.8501 161.046 58.5051 161.291 58.3576 161.658H58.3419V161.103H57.6958V164.402ZM63.9628 164.459C64.3956 164.459 64.8128 164.227 65.0041 163.86H65.0198V164.402H65.6691V162.128C65.6691 161.466 65.1578 161.043 64.358 161.043C63.5425 161.043 63.0343 161.482 62.9967 162.078H63.6366C63.6962 161.783 63.9408 161.595 64.3329 161.595C64.7469 161.595 64.9947 161.815 64.9947 162.182V162.436L64.0914 162.489C63.3072 162.533 62.865 162.887 62.865 163.464C62.865 164.057 63.3166 164.459 63.9628 164.459ZM64.151 163.922C63.7871 163.922 63.5487 163.734 63.5487 163.446C63.5487 163.163 63.7777 162.985 64.1823 162.956L64.9947 162.906V163.167C64.9947 163.596 64.6246 163.922 64.151 163.922ZM66.6885 160.569C66.9049 160.569 67.0774 160.394 67.0774 160.18C67.0774 159.964 66.9049 159.792 66.6885 159.792C66.4721 159.792 66.2964 159.964 66.2964 160.18C66.2964 160.394 66.4721 160.569 66.6885 160.569ZM66.3497 164.402H67.0272V161.103H66.3497V164.402ZM67.7455 164.402H68.423V159.876H67.7455V164.402Z" fill="#393939"/>
<path d="M54.1828 132.573V137.1H54.8854V135.553H55.8577C56.7454 135.553 57.3696 134.945 57.3696 134.06C57.3696 133.179 56.758 132.573 55.8797 132.573H54.1828ZM54.8854 133.166H55.6946C56.3031 133.166 56.6513 133.492 56.6513 134.063C56.6513 134.634 56.3031 134.964 55.6915 134.964H54.8854V133.166ZM57.9279 137.1H58.6054V135.193C58.6054 134.672 58.9128 134.327 59.4147 134.327C59.8914 134.327 60.1361 134.619 60.1361 135.105V137.1H60.8167V134.973C60.8167 134.226 60.3839 133.743 59.6593 133.743C59.1575 133.743 58.7968 133.966 58.6148 134.352H58.5992V132.573H57.9279V137.1ZM62.89 137.162C63.8342 137.162 64.4552 136.513 64.4552 135.45C64.4552 134.39 63.831 133.74 62.89 133.74C61.9491 133.74 61.3249 134.39 61.3249 135.45C61.3249 136.513 61.9459 137.162 62.89 137.162ZM62.89 136.604C62.36 136.604 62.0149 136.184 62.0149 135.45C62.0149 134.719 62.36 134.299 62.89 134.299C63.4201 134.299 63.7652 134.719 63.7652 135.45C63.7652 136.184 63.4233 136.604 62.89 136.604ZM64.979 137.1H65.6565V135.177C65.6565 134.666 65.9639 134.327 66.4407 134.327C66.9112 134.327 67.1433 134.6 67.1433 135.095V137.1H67.8239V134.964C67.8239 134.208 67.4068 133.743 66.6791 133.743C66.1709 133.743 65.8196 133.976 65.6409 134.352H65.6252V133.8H64.979V137.1ZM70.6657 136.13C70.5748 136.419 70.2893 136.613 69.9035 136.613C69.3609 136.613 69.0159 136.234 69.0159 135.66V135.619H71.3464V135.387C71.3464 134.386 70.7755 133.74 69.8596 133.74C68.928 133.74 68.3321 134.43 68.3321 135.465C68.3321 136.507 68.9186 137.162 69.8878 137.162C70.6438 137.162 71.2146 136.733 71.3087 136.13H70.6657ZM69.8596 134.286C70.3332 134.286 70.6532 134.641 70.6689 135.145H69.019C69.0535 134.647 69.386 134.286 69.8596 134.286Z" fill="#393939"/>
<path d="M54.8854 244.699V240.173H54.1828V244.699H54.8854ZM55.6382 244.699H56.3157V242.776C56.3157 242.265 56.6231 241.926 57.0998 241.926C57.5703 241.926 57.8025 242.199 57.8025 242.695V244.699H58.4831V242.563C58.4831 241.807 58.0659 241.343 57.3382 241.343C56.8301 241.343 56.4788 241.575 56.3 241.952H56.2843V241.399H55.6382V244.699ZM59.0791 242.334C59.0791 242.814 59.3896 243.115 60.0169 243.26L60.5533 243.385C60.914 243.467 61.0363 243.592 61.0363 243.805C61.0363 244.075 60.7854 244.244 60.3776 244.244C59.9636 244.244 59.7283 244.075 59.6656 243.73H58.9944C59.0571 244.357 59.5527 244.762 60.3776 244.762C61.1555 244.762 61.7169 244.348 61.7169 243.746C61.7169 243.269 61.4597 243.005 60.7854 242.849L60.249 242.726C59.8914 242.645 59.7409 242.504 59.7409 242.297C59.7409 242.033 59.9855 241.854 60.3525 241.854C60.7321 241.854 60.9673 242.055 61.0049 242.375H61.6417C61.6197 241.766 61.121 241.34 60.3525 241.34C59.5935 241.34 59.0791 241.745 59.0791 242.334ZM62.4415 240.618V241.399H61.9616V241.936H62.4415V243.83C62.4415 244.467 62.7018 244.721 63.3699 244.721C63.5205 244.721 63.6711 244.709 63.7463 244.69V244.153C63.7024 244.163 63.5926 244.169 63.5236 244.169C63.2476 244.169 63.1222 244.041 63.1222 243.755V241.936H63.7495V241.399H63.1222V240.618H62.4415ZM65.2237 244.756C65.6565 244.756 66.0737 244.524 66.265 244.157H66.2807V244.699H66.93V242.425C66.93 241.763 66.4187 241.34 65.6189 241.34C64.8034 241.34 64.2952 241.779 64.2576 242.375H64.8975C64.9571 242.08 65.2017 241.892 65.5938 241.892C66.0078 241.892 66.2556 242.112 66.2556 242.478V242.733L65.3523 242.786C64.5681 242.83 64.1259 243.184 64.1259 243.761C64.1259 244.354 64.5775 244.756 65.2237 244.756ZM65.4119 244.219C65.048 244.219 64.8097 244.031 64.8097 243.743C64.8097 243.46 65.0386 243.281 65.4433 243.253L66.2556 243.203V243.463C66.2556 243.893 65.8855 244.219 65.4119 244.219ZM69.0002 245.941C69.9412 245.941 70.5497 245.427 70.5497 244.64V241.399H69.891V241.964H69.8784C69.6777 241.581 69.295 241.346 68.8277 241.346C67.9808 241.346 67.4413 241.999 67.4413 243.037C67.4413 244.066 67.9839 244.712 68.812 244.712C69.2825 244.712 69.6714 244.477 69.8565 244.119H69.869V244.662C69.869 245.113 69.5554 245.414 69.0253 245.414C68.6395 245.414 68.3383 245.232 68.2411 244.956H67.5605C67.6452 245.527 68.2223 245.941 69.0002 245.941ZM68.9939 244.15C68.4732 244.15 68.1345 243.73 68.1345 243.04C68.1345 242.353 68.4732 241.917 68.9939 241.917C69.524 241.917 69.8722 242.362 69.8722 243.04C69.8722 243.721 69.524 244.15 68.9939 244.15ZM71.2209 244.699H71.8984V242.723C71.8984 242.256 72.1682 241.964 72.6041 241.964C72.7359 241.964 72.8551 241.98 72.9084 242.002V241.371C72.8582 241.362 72.7735 241.346 72.6763 241.346C72.2873 241.346 71.9925 241.575 71.8827 241.961H71.867V241.399H71.2209V244.699ZM74.2258 244.756C74.6586 244.756 75.0758 244.524 75.2671 244.157H75.2828V244.699H75.9321V242.425C75.9321 241.763 75.4208 241.34 74.621 241.34C73.8055 241.34 73.2973 241.779 73.2597 242.375H73.8996C73.9592 242.08 74.2038 241.892 74.5959 241.892C75.0099 241.892 75.2577 242.112 75.2577 242.478V242.733L74.3544 242.786C73.5702 242.83 73.128 243.184 73.128 243.761C73.128 244.354 73.5796 244.756 74.2258 244.756ZM74.414 244.219C74.0501 244.219 73.8117 244.031 73.8117 243.743C73.8117 243.46 74.0407 243.281 74.4453 243.253L75.2577 243.203V243.463C75.2577 243.893 74.8876 244.219 74.414 244.219ZM76.5908 244.699H77.2683V242.66C77.2683 242.237 77.5537 241.923 77.9552 241.923C78.3379 241.923 78.5794 242.165 78.5794 242.544V244.699H79.2444V242.638C79.2444 242.221 79.5235 241.923 79.925 241.923C80.3265 241.923 80.5555 242.168 80.5555 242.595V244.699H81.2361V242.431C81.2361 241.776 80.8095 241.343 80.1571 241.343C79.6866 241.343 79.2977 241.588 79.1283 241.989H79.1126C78.9809 241.578 78.6484 241.343 78.1905 241.343C77.7451 241.343 77.4 241.588 77.2526 241.955H77.2369V241.399H76.5908V244.699Z" fill="#393939"/>
<path d="M56.0083 271.465V267.544H57.3916V266.939H53.9193V267.544H55.3057V271.465H56.0083ZM61.7232 268.165H61.052L60.4498 270.762H60.4341L59.744 268.165H59.0916L58.4047 270.762H58.3921L57.7899 268.165H57.1124L58.0189 271.465H58.7183L59.4053 268.993H59.4209L60.1141 271.465H60.8199L61.7232 268.165ZM62.498 267.632C62.7144 267.632 62.8869 267.456 62.8869 267.243C62.8869 267.027 62.7144 266.854 62.498 266.854C62.2815 266.854 62.1059 267.027 62.1059 267.243C62.1059 267.456 62.2815 267.632 62.498 267.632ZM62.1592 271.465H62.8367V268.165H62.1592V271.465ZM63.7275 267.384V268.165H63.2476V268.701H63.7275V270.596C63.7275 271.233 63.9879 271.487 64.656 271.487C64.8065 271.487 64.9571 271.474 65.0324 271.455V270.919C64.9884 270.928 64.8787 270.935 64.8097 270.935C64.5336 270.935 64.4082 270.806 64.4082 270.521V268.701H65.0355V268.165H64.4082V267.384H63.7275ZM65.7914 267.384V268.165H65.3115V268.701H65.7914V270.596C65.7914 271.233 66.0518 271.487 66.7199 271.487C66.8704 271.487 67.021 271.474 67.0962 271.455V270.919C67.0523 270.928 66.9426 270.935 66.8735 270.935C66.5975 270.935 66.4721 270.806 66.4721 270.521V268.701H67.0994V268.165H66.4721V267.384H65.7914ZM69.7624 270.496C69.6714 270.784 69.386 270.979 69.0002 270.979C68.4575 270.979 68.1125 270.599 68.1125 270.025V269.984H70.443V269.752C70.443 268.752 69.8722 268.106 68.9563 268.106C68.0247 268.106 67.4287 268.796 67.4287 269.831C67.4287 270.872 68.0153 271.528 68.9845 271.528C69.7404 271.528 70.3113 271.098 70.4054 270.496H69.7624ZM68.9563 268.651C69.4299 268.651 69.7498 269.006 69.7655 269.511H68.1156C68.1502 269.012 68.4826 268.651 68.9563 268.651ZM70.97 271.465H71.6475V269.489C71.6475 269.021 71.9172 268.73 72.3532 268.73C72.485 268.73 72.6041 268.745 72.6575 268.767V268.137C72.6073 268.127 72.5226 268.112 72.4254 268.112C72.0364 268.112 71.7416 268.341 71.6318 268.727H71.6161V268.165H70.97V271.465Z" fill="#393939"/>
<path d="M56.1432 298.23V296.377L57.7397 293.704H56.9618L55.8076 295.702H55.7856L54.6313 293.704H53.8472L55.4406 296.377V298.23H56.1432ZM58.9442 298.293C59.8883 298.293 60.5094 297.644 60.5094 296.581C60.5094 295.52 59.8852 294.871 58.9442 294.871C58.0032 294.871 57.379 295.52 57.379 296.581C57.379 297.644 58.0001 298.293 58.9442 298.293ZM58.9442 297.735C58.4141 297.735 58.0691 297.315 58.0691 296.581C58.0691 295.85 58.4141 295.429 58.9442 295.429C59.4743 295.429 59.8193 295.85 59.8193 296.581C59.8193 297.315 59.4774 297.735 58.9442 297.735ZM63.8624 294.931H63.1849V296.853C63.1849 297.368 62.89 297.707 62.4007 297.707C61.9334 297.707 61.695 297.437 61.695 296.935V294.931H61.0175V297.067C61.0175 297.823 61.4566 298.29 62.1749 298.29C62.6799 298.29 63.0155 298.067 63.1974 297.672H63.2131V298.23H63.8624V294.931ZM65.851 298.23V294.31H67.2343V293.704H63.762V294.31H65.1484V298.23H65.851ZM69.9537 294.931H69.2762V296.853C69.2762 297.368 68.9814 297.707 68.492 297.707C68.0247 297.707 67.7863 297.437 67.7863 296.935V294.931H67.1088V297.067C67.1088 297.823 67.5479 298.29 68.2662 298.29C68.7712 298.29 69.1068 298.067 69.2887 297.672H69.3044V298.23H69.9537V294.931ZM72.3814 298.287C73.2189 298.287 73.7584 297.628 73.7584 296.581C73.7584 295.536 73.2158 294.877 72.3846 294.877C71.9172 294.877 71.5408 295.11 71.3432 295.492H71.3275V293.704H70.65V298.23H71.3087V297.669H71.3213C71.5252 298.052 71.8984 298.287 72.3814 298.287ZM72.1995 295.448C72.7327 295.448 73.0621 295.887 73.0621 296.581C73.0621 297.28 72.7327 297.713 72.1995 297.713C71.6851 297.713 71.3244 297.268 71.3244 296.581C71.3244 295.9 71.6851 295.448 72.1995 295.448ZM76.4747 297.261C76.3838 297.55 76.0983 297.744 75.7125 297.744C75.1699 297.744 74.8249 297.365 74.8249 296.791V296.75H77.1554V296.518C77.1554 295.517 76.5845 294.871 75.6686 294.871C74.737 294.871 74.1411 295.561 74.1411 296.596C74.1411 297.638 74.7276 298.293 75.6969 298.293C76.4528 298.293 77.0236 297.863 77.1177 297.261H76.4747ZM75.6686 295.417C76.1423 295.417 76.4622 295.771 76.4779 296.276H74.828C74.8625 295.778 75.195 295.417 75.6686 295.417Z" fill="#393939"/>
<path d="M56.9932 324.388H54.8854V320.47H54.1828V324.996H56.9932V324.388ZM57.8746 321.163C58.091 321.163 58.2635 320.987 58.2635 320.774C58.2635 320.558 58.091 320.385 57.8746 320.385C57.6582 320.385 57.4825 320.558 57.4825 320.774C57.4825 320.987 57.6582 321.163 57.8746 321.163ZM57.5358 324.996H58.2133V321.696H57.5358V324.996ZM58.9065 324.996H59.584V323.073C59.584 322.562 59.8914 322.223 60.3682 322.223C60.8387 322.223 61.0708 322.496 61.0708 322.992V324.996H61.7515V322.86C61.7515 322.104 61.3343 321.64 60.6066 321.64C60.0985 321.64 59.7472 321.872 59.5684 322.248H59.5527V321.696H58.9065V324.996ZM63.1159 323.111H63.1096V320.47H62.4321V324.996H63.1096V323.81L63.3919 323.531L64.5117 324.996H65.299L63.8781 323.117L65.2456 321.696H64.4489L63.1159 323.111ZM67.6797 324.027C67.5887 324.315 67.3033 324.51 66.9175 324.51C66.3748 324.51 66.0298 324.13 66.0298 323.556V323.516H68.3603V323.284C68.3603 322.283 67.7894 321.637 66.8735 321.637C65.942 321.637 65.346 322.327 65.346 323.362C65.346 324.403 65.9326 325.059 66.9018 325.059C67.6577 325.059 68.2286 324.629 68.3227 324.027H67.6797ZM66.8735 322.183C67.3472 322.183 67.6671 322.537 67.6828 323.042H66.0329C66.0674 322.543 66.3999 322.183 66.8735 322.183ZM70.1262 325.053C70.6061 325.053 70.9825 324.811 71.177 324.435H71.1895V324.996H71.8482V320.47H71.1676V322.245H71.155C70.97 321.881 70.5936 321.643 70.1199 321.643C69.2919 321.643 68.7398 322.305 68.7398 323.346C68.7398 324.388 69.2919 325.053 70.1262 325.053ZM70.305 322.214C70.8257 322.214 71.1738 322.662 71.1738 323.346C71.1738 324.036 70.8257 324.479 70.305 324.479C69.7686 324.479 69.433 324.043 69.433 323.346C69.433 322.653 69.7686 322.214 70.305 322.214ZM72.9053 321.163C73.1217 321.163 73.2942 320.987 73.2942 320.774C73.2942 320.558 73.1217 320.385 72.9053 320.385C72.6888 320.385 72.5132 320.558 72.5132 320.774C72.5132 320.987 72.6888 321.163 72.9053 321.163ZM72.5665 324.996H73.244V321.696H72.5665V324.996ZM73.9372 324.996H74.6147V323.073C74.6147 322.562 74.9221 322.223 75.3989 322.223C75.8694 322.223 76.1015 322.496 76.1015 322.992V324.996H76.7821V322.86C76.7821 322.104 76.365 321.64 75.6373 321.64C75.1291 321.64 74.7778 321.872 74.599 322.248H74.5834V321.696H73.9372V324.996Z" fill="#393939"/>
<rect x="33.4238" y="155.189" width="13.9182" height="13.9182" rx="3.74721" fill="#F9F9FA"/>
<path fill-rule="evenodd" clip-rule="evenodd" d="M41.5434 160.216H42.3167V162.149C42.3167 163.105 42.3899 163.309 42.7033 163.309C43.2076 163.309 43.4765 163.071 43.4765 162.149C43.4765 160.104 42.4508 159.056 40.3836 159.056C39.0444 159.057 37.8574 159.919 37.4429 161.192C37.0285 162.466 37.4807 163.861 38.5633 164.65C39.646 165.438 41.113 165.44 42.1978 164.655L42.6513 165.281C41.2953 166.263 39.4615 166.26 38.1082 165.275C36.7549 164.289 36.1896 162.545 36.7076 160.953C37.2257 159.361 38.7095 158.283 40.3836 158.283C42.8816 158.283 44.2497 159.681 44.2497 162.149C44.2497 163.52 43.6153 164.082 42.7033 164.082C42.1832 164.082 41.8858 163.915 41.7226 163.542C41.3752 163.876 40.903 164.082 40.3828 164.082C39.3152 164.082 38.4497 163.216 38.4497 162.148C38.4497 161.081 39.3152 160.215 40.3828 160.215C40.8183 160.215 41.2202 160.359 41.5434 160.602V160.216ZM41.5428 162.149C41.5428 162.789 41.0235 163.308 40.383 163.308C39.7424 163.308 39.2231 162.789 39.2231 162.149C39.2231 161.508 39.7424 160.989 40.383 160.989C41.0235 160.989 41.5428 161.508 41.5428 162.149Z" fill="#393939"/>
<rect x="33.4238" y="181.955" width="13.9182" height="13.9182" rx="3.74721" fill="#F9F9FA"/>
<path fill-rule="evenodd" clip-rule="evenodd" d="M40.3839 193.294L40.6381 193.072C42.7765 191.205 43.8634 189.575 43.8634 188.142C43.8634 186.112 42.2794 184.662 40.3839 184.662C38.4883 184.662 36.9043 186.112 36.9043 188.142C36.9043 189.575 37.9912 191.205 40.1296 193.072L40.3839 193.294ZM40.3843 192.264C38.5698 190.628 37.678 189.243 37.678 188.141C37.678 186.555 38.9013 185.435 40.3843 185.435C41.8673 185.435 43.0906 186.555 43.0906 188.141C43.0906 189.243 42.1989 190.628 40.3843 192.264ZM40.3837 186.208C41.4513 186.208 42.3168 187.074 42.3168 188.142C42.3168 189.209 41.4513 190.075 40.3837 190.075C39.3161 190.075 38.4506 189.209 38.4506 188.142C38.4506 187.074 39.3161 186.208 40.3837 186.208ZM39.2239 188.142C39.2239 187.501 39.7432 186.982 40.3837 186.982C41.0243 186.982 41.5436 187.501 41.5436 188.142C41.5436 188.782 41.0243 189.302 40.3837 189.302C39.7432 189.302 39.2239 188.782 39.2239 188.142Z" fill="#393939"/>
<rect x="33.4238" y="128.424" width="13.9182" height="13.9182" rx="3.74721" fill="#F9F9FA"/>
<path fill-rule="evenodd" clip-rule="evenodd" d="M39.9416 133.968C40.1419 133.698 40.2137 133.414 39.9872 133.163C39.4788 132.451 39.1369 132.011 38.9224 131.8C38.5147 131.397 37.844 131.451 37.4909 131.799C37.3013 131.986 37.2371 132.05 37.0423 132.248C35.9576 133.333 36.6191 135.628 38.3777 137.388C40.1358 139.148 42.4299 139.81 43.5169 138.722C43.6966 138.549 43.8487 138.397 43.9687 138.27C44.3147 137.904 44.3673 137.263 43.9664 136.846C43.7609 136.633 43.3414 136.308 42.6001 135.777C42.3731 135.574 42.1039 135.618 41.8571 135.78C41.7384 135.858 41.652 135.937 41.4888 136.1L41.1926 136.397C41.1536 136.436 40.6238 136.17 40.1095 135.655C39.5949 135.14 39.3297 134.611 39.3686 134.572L39.665 134.275C39.7168 134.223 39.7415 134.198 39.7732 134.165C39.8394 134.095 39.8941 134.032 39.9416 133.968ZM41.7394 136.942L42.0357 136.646C42.1254 136.556 42.1836 136.501 42.231 136.463C42.8804 136.929 43.2564 137.222 43.4101 137.382C43.5023 137.478 43.488 137.653 43.4078 137.737C43.2968 137.855 43.1527 137.999 42.9758 138.17C42.2729 138.873 40.4211 138.338 38.9246 136.84C37.4276 135.342 36.8936 133.49 37.5911 132.792C37.7851 132.595 37.8465 132.534 38.0335 132.349C38.1036 132.28 38.2945 132.265 38.3798 132.349C38.5449 132.512 38.8512 132.904 39.3017 133.532C39.2784 133.561 39.2493 133.594 39.2138 133.631C39.1878 133.658 39.1661 133.68 39.1187 133.728L38.8226 134.024C38.3188 134.528 38.7478 135.385 39.5632 136.201C40.378 137.017 41.2357 137.446 41.7394 136.942Z" fill="#393939"/>
</g>
<g opacity="0.3" filter="url(#filter2_f)">
<rect x="160" y="332" width="213" height="87" rx="5" fill="#A0A0A0"/>
</g>
<g clip-path="url(#clip1)">
<rect x="144" y="323" width="241.404" height="86" rx="5" fill="#BD00FF"/>
<rect x="144" y="323" width="241.404" height="86" fill="white"/>
<path d="M153.641 334.674V341.053H154.631V338.874H156.001C157.252 338.874 158.132 338.016 158.132 336.77C158.132 335.527 157.27 334.674 156.032 334.674H153.641ZM154.631 335.51H155.771C156.629 335.51 157.119 335.969 157.119 336.774C157.119 337.578 156.629 338.043 155.767 338.043H154.631V335.51ZM158.998 334.674V341.053H161.248C163.149 341.053 164.267 339.868 164.267 337.852C164.267 335.841 163.144 334.674 161.248 334.674H158.998ZM159.988 335.527H161.155C162.503 335.527 163.255 336.358 163.255 337.861C163.255 339.369 162.508 340.195 161.155 340.195H159.988V335.527ZM166.203 341.053V338.383H168.943V337.547H166.203V335.527H169.195V334.674H165.213V341.053H166.203Z" fill="#393939"/>
<path d="M154.825 367.327V369.719H153.707V363.283H156.169C156.888 363.283 157.458 363.47 157.88 363.844C158.304 364.219 158.516 364.714 158.516 365.329C158.516 365.96 158.308 366.451 157.893 366.801C157.48 367.152 156.901 367.327 156.156 367.327H154.825ZM154.825 366.43H156.169C156.567 366.43 156.87 366.337 157.08 366.152C157.289 365.963 157.393 365.692 157.393 365.338C157.393 364.991 157.287 364.714 157.075 364.507C156.863 364.298 156.571 364.191 156.2 364.185H154.825V366.43ZM164.603 369.719H163.484L160.616 365.153V369.719H159.497V363.283H160.616L163.493 367.867V363.283H164.603V369.719ZM170.857 368.883C170.625 369.187 170.302 369.417 169.889 369.573C169.477 369.729 169.008 369.807 168.484 369.807C167.944 369.807 167.467 369.685 167.052 369.44C166.636 369.196 166.315 368.846 166.088 368.393C165.864 367.936 165.748 367.404 165.739 366.797V366.293C165.739 365.321 165.972 364.562 166.437 364.017C166.903 363.469 167.553 363.194 168.387 363.194C169.103 363.194 169.671 363.371 170.093 363.725C170.514 364.079 170.768 364.588 170.853 365.254H169.757C169.633 364.479 169.184 364.092 168.409 364.092C167.908 364.092 167.526 364.273 167.264 364.635C167.004 364.995 166.87 365.524 166.862 366.222V366.717C166.862 367.413 167.007 367.954 167.299 368.34C167.594 368.723 168.002 368.914 168.524 368.914C169.095 368.914 169.502 368.785 169.744 368.525V367.266H168.417V366.417H170.857V368.883Z" fill="#393939"/>
<path d="M156.341 391.951H157.455V396.464C157.455 397.08 157.262 397.569 156.876 397.931C156.493 398.294 155.986 398.475 155.356 398.475C154.684 398.475 154.165 398.306 153.8 397.967C153.434 397.628 153.252 397.156 153.252 396.552H154.366C154.366 396.894 154.45 397.152 154.617 397.326C154.788 397.497 155.034 397.582 155.356 397.582C155.656 397.582 155.895 397.484 156.072 397.286C156.252 397.086 156.341 396.81 156.341 396.459V391.951ZM159.855 395.995V398.387H158.737V391.951H161.199C161.918 391.951 162.488 392.138 162.91 392.512C163.334 392.886 163.546 393.382 163.546 393.997C163.546 394.628 163.339 395.119 162.923 395.469C162.511 395.82 161.932 395.995 161.186 395.995H159.855ZM159.855 395.098H161.199C161.597 395.098 161.901 395.005 162.11 394.82C162.319 394.631 162.424 394.36 162.424 394.006C162.424 393.659 162.318 393.382 162.105 393.175C161.893 392.966 161.601 392.858 161.23 392.853H159.855V395.098ZM169.461 397.551C169.228 397.855 168.905 398.085 168.493 398.241C168.08 398.397 167.611 398.475 167.087 398.475C166.548 398.475 166.07 398.353 165.655 398.108C165.239 397.864 164.918 397.514 164.691 397.061C164.467 396.604 164.351 396.072 164.342 395.465V394.961C164.342 393.989 164.575 393.23 165.04 392.685C165.506 392.137 166.156 391.862 166.99 391.862C167.706 391.862 168.275 392.039 168.696 392.393C169.117 392.747 169.371 393.256 169.456 393.922H168.36C168.236 393.147 167.787 392.76 167.012 392.76C166.511 392.76 166.129 392.941 165.867 393.303C165.608 393.663 165.474 394.192 165.465 394.89V395.385C165.465 396.081 165.611 396.622 165.902 397.008C166.197 397.391 166.605 397.582 167.127 397.582C167.698 397.582 168.105 397.453 168.347 397.193V395.933H167.021V395.085H169.461V397.551Z" fill="#393939"/>
<line x1="144" y1="351.289" x2="385.404" y2="351.289" stroke="#EBEBEB" stroke-width="0.754386"/>
<line x1="144" y1="379.957" x2="385.404" y2="379.957" stroke="#EBEBEB" stroke-width="0.754386"/>
<rect x="306.947" y="356.193" width="69.4035" height="19.614" rx="2.26316" fill="#F9F9FA"/>
<path d="M336.811 365.219H337.748C337.748 364.538 338.301 364.039 339.03 364.039C339.706 364.039 340.148 364.498 340.148 365.086C340.148 365.586 339.954 365.913 339.114 366.77L336.864 369.038V369.719H341.227V368.883H338.19V368.861L339.64 367.407C340.781 366.267 341.125 365.758 341.125 365.024C341.125 364.021 340.281 363.221 339.03 363.221C337.748 363.221 336.811 364.061 336.811 365.219ZM343.826 368.008L344.852 369.719H345.904L344.396 367.367L345.921 365.069H344.869L343.866 366.753H343.848L342.832 365.069H341.762L343.274 367.398L341.74 369.719H342.774L343.804 368.008H343.826Z" fill="#393939"/>
<path fill-rule="evenodd" clip-rule="evenodd" d="M366.544 371.533C363.489 371.533 361.012 369.056 361.012 366.001C361.012 362.946 363.489 360.469 366.544 360.469C369.599 360.469 372.076 362.946 372.076 366.001C372.076 369.056 369.599 371.533 366.544 371.533ZM366.544 370.528C369.044 370.528 371.071 368.501 371.071 366.001C371.071 363.502 369.044 361.475 366.544 361.475C364.045 361.475 362.018 363.502 362.018 366.001C362.018 368.501 364.045 370.528 366.544 370.528ZM369.058 365.498H367.046V363.486H366.04V365.498H364.029V366.503H366.04V368.515H367.046V366.503H369.058V365.498Z" fill="#393939"/>
<path fill-rule="evenodd" clip-rule="evenodd" d="M316.755 371.533C313.699 371.533 311.223 369.056 311.223 366.001C311.223 362.946 313.699 360.469 316.755 360.469C319.81 360.469 322.287 362.946 322.287 366.001C322.287 369.056 319.81 371.533 316.755 371.533ZM316.755 370.528C319.255 370.528 321.282 368.501 321.282 366.001C321.282 363.502 319.255 361.475 316.755 361.475C314.255 361.475 312.229 363.502 312.229 366.001C312.229 368.501 314.255 370.528 316.755 370.528ZM314.24 365.497V366.503H319.269V365.497H314.24Z" fill="#393939"/>
</g>
<g opacity="0.3" filter="url(#filter3_f)">
<rect x="541" y="50" width="171" height="36" fill="#A0A0A0"/>
</g>
<g clip-path="url(#clip2)">
<rect x="530" y="26" width="193" height="50" fill="white"/>
<rect x="530" y="26" width="193" height="50" fill="white"/>
<rect x="618" y="38" width="93" height="26" rx="7" fill="#F9F9FA"/>
<path d="M664.026 57H665.47V45.022H664.009L660.822 47.313V48.8154L663.993 46.6074H664.026V57Z" fill="#393939"/>
<rect x="542" y="38" width="26" height="26" rx="7" fill="#F9F9FA"/>
<path fill-rule="evenodd" clip-rule="evenodd" d="M558.201 50.5307C559.707 51.0951 560.779 52.5481 560.779 54.2515C560.779 56.4453 559.001 58.2237 556.807 58.2237H550.668V43.7793H555.362C557.556 43.7793 559.335 45.5577 559.335 47.7515C559.335 48.8334 558.902 49.8143 558.201 50.5307ZM555.362 50.2793C556.758 50.2793 557.89 49.1476 557.89 47.7515C557.89 46.3555 556.758 45.2237 555.362 45.2237H552.112V50.2793H555.362ZM552.112 56.7793V51.7237H556.807C558.203 51.7237 559.335 52.8555 559.335 54.2515C559.335 55.6476 558.203 56.7793 556.807 56.7793H552.112Z" fill="#393939"/>
<rect x="580" y="38" width="26" height="26" rx="7" fill="#F9F9FA"/>
<path d="M595.025 45.2237L592.457 56.7793H595.168V58.2237H588.307V56.7793H590.977L593.545 45.2237H591.196V43.7793H598.057V45.2237H595.025Z" fill="#393939"/>
<rect x="685" y="38" width="26" height="26" rx="7" fill="#F9F9FA"/>
<path fill-rule="evenodd" clip-rule="evenodd" d="M698.001 58.9455C693.613 58.9455 690.057 55.3887 690.057 51.0011C690.057 46.6135 693.613 43.0566 698.001 43.0566C702.389 43.0566 705.946 46.6135 705.946 51.0011C705.946 55.3887 702.389 58.9455 698.001 58.9455ZM698.001 57.5011C701.591 57.5011 704.501 54.5909 704.501 51.0011C704.501 47.4112 701.591 44.5011 698.001 44.5011C694.411 44.5011 691.501 47.4112 691.501 51.0011C691.501 54.5909 694.411 57.5011 698.001 57.5011ZM701.612 50.2789H698.723V47.39H697.279V50.2789H694.39V51.7233H697.279V54.6122H698.723V51.7233H701.612V50.2789Z" fill="#393939"/>
<rect x="618" y="38" width="26" height="26" rx="7" fill="#F9F9FA"/>
<path fill-rule="evenodd" clip-rule="evenodd" d="M631.001 58.9455C626.613 58.9455 623.057 55.3887 623.057 51.0011C623.057 46.6135 626.613 43.0566 631.001 43.0566C635.389 43.0566 638.946 46.6135 638.946 51.0011C638.946 55.3887 635.389 58.9455 631.001 58.9455ZM631.001 57.5011C634.591 57.5011 637.501 54.5909 637.501 51.0011C637.501 47.4112 634.591 44.5011 631.001 44.5011C627.411 44.5011 624.501 47.4112 624.501 51.0011C624.501 54.5909 627.411 57.5011 631.001 57.5011ZM627.39 50.2789V51.7233H634.612V50.2789H627.39Z" fill="#393939"/>
</g>
<g opacity="0.3" filter="url(#filter4_f)">
<rect x="701" y="122" width="116" height="215" fill="#A0A0A0"/>
</g>
<rect x="692" y="104" width="134" height="211" rx="5" fill="white"/>
<mask id="mask0" mask-type="alpha" maskUnits="userSpaceOnUse" x="701" y="113" width="116" height="101">
<rect x="701" y="113" width="116" height="101" fill="url(#paint0_linear)"/>
</mask>
<g mask="url(#mask0)">
<rect x="701" y="113" width="116" height="101" rx="2" fill="url(#paint1_linear)"/>
<g filter="url(#filter5_f)">
<circle cx="685" cy="94" r="74" fill="white"/>
</g>
</g>
<rect x="701" y="220" width="15" height="15" rx="2" fill="#F13D35"/>
<rect x="721" y="220" width="15" height="15" rx="2" fill="#E6285F"/>
<rect x="741" y="220" width="15" height="15" rx="2" fill="#9A36AA"/>
<rect x="761" y="220" width="15" height="15" rx="2" fill="#714DB5"/>
<rect x="781" y="220" width="15" height="15" rx="2" fill="#5A68B7"/>
<rect x="802" y="220" width="15" height="15" rx="2" fill="#4FA6F0"/>
<rect x="701" y="241" width="15" height="15" rx="2" fill="#FF915A"/>
<rect x="721" y="241" width="15" height="15" rx="2" fill="#FF6D4B"/>
<rect x="741" y="241" width="15" height="15" rx="2" fill="#FFA97C"/>
<rect x="761" y="241" width="15" height="15" rx="2" fill="#FFB555"/>
<rect x="781" y="241" width="15" height="15" rx="2" fill="#FFCAB0"/>
<rect x="801" y="241" width="15" height="15" rx="2" fill="#FFE9DF"/>
<rect x="701" y="262" width="115" height="17" rx="2" fill="#EFF1F2"/>
<path d="M727.061 273H727.529L727.797 271.682H728.654L728.746 271.21H727.892L728.137 270.02H728.958L729.05 269.552H728.235L728.497 268.279H728.029L727.764 269.552H726.675L726.93 268.279H726.466L726.201 269.552H725.393L725.298 270.02H726.106L725.867 271.21H725.092L725 271.682H725.766L725.501 273H725.965L726.233 271.682H727.329L727.061 273ZM726.325 271.22L726.57 270.013H727.673L727.427 271.22H726.325ZM731.141 273.082C732.109 273.082 732.812 272.401 732.812 271.469C732.812 270.573 732.145 269.908 731.245 269.908C730.604 269.908 730.12 270.249 729.927 270.674H729.917C729.937 269.418 730.385 268.718 731.173 268.718C731.657 268.718 732.011 268.963 732.148 269.388H732.747C732.6 268.665 731.981 268.197 731.18 268.197C730.025 268.197 729.348 269.13 729.348 270.72C729.348 272.477 730.27 273.082 731.141 273.082ZM731.134 272.558C730.529 272.558 730.058 272.077 730.058 271.472C730.058 270.87 730.519 270.425 731.144 270.425C731.769 270.425 732.214 270.87 732.214 271.489C732.214 272.084 731.736 272.558 731.134 272.558ZM734.945 273.079C736.1 273.079 736.774 272.149 736.774 270.559C736.774 268.77 735.825 268.197 734.981 268.197C734.013 268.197 733.31 268.878 733.31 269.81C733.31 270.707 733.977 271.371 734.877 271.371C735.479 271.371 735.995 271.067 736.195 270.599H736.205C736.188 271.852 735.753 272.565 734.952 272.565C734.461 272.565 734.091 272.339 733.961 271.904H733.362C733.499 272.614 734.131 273.079 734.945 273.079ZM734.978 270.854C734.36 270.854 733.905 270.406 733.905 269.791C733.905 269.199 734.383 268.727 734.988 268.727C735.596 268.727 736.067 269.202 736.067 269.807C736.067 270.409 735.603 270.854 734.978 270.854ZM737.53 268.279V273H739.116C740.52 273 741.344 272.127 741.344 270.638C741.344 269.153 740.517 268.279 739.116 268.279H737.53ZM738.119 268.809H739.077C740.15 268.809 740.742 269.464 740.742 270.645C740.742 271.816 740.147 272.47 739.077 272.47H738.119V268.809ZM742.273 273H742.892L744.992 268.826V268.279H741.868V268.803H744.41V268.816L742.273 273ZM745.741 268.279V273H747.328C748.731 273 749.556 272.127 749.556 270.638C749.556 269.153 748.728 268.279 747.328 268.279H745.741ZM746.33 268.809H747.289C748.362 268.809 748.954 269.464 748.954 270.645C748.954 271.816 748.358 272.47 747.289 272.47H746.33V268.809ZM753.213 272.47H750.877V270.847H753.092V270.324H750.877V268.809H753.213V268.279H750.289V273H753.213V272.47Z" fill="#1E1E1E"/>
<path d="M710.227 273V268.279H709.638V270.321H707.047V268.279H706.458V273H707.047V270.851H709.638V273H710.227ZM714.067 272.47H711.732V270.847H713.946V270.324H711.732V268.809H714.067V268.279H711.143V273H714.067V272.47ZM714.535 273H715.203L716.475 271.119H716.498L717.751 273H718.458L716.865 270.661V270.641L718.494 268.279H717.823L716.547 270.177H716.524L715.265 268.279H714.555L716.142 270.612V270.635L714.535 273Z" fill="#6A6E72"/>
<rect x="701" y="285" width="53" height="17" rx="2" fill="#FF464E"/>
<path d="M720.229 294.734C720.285 295.549 720.972 296.079 722.002 296.079C723.059 296.079 723.746 295.532 723.746 294.659C723.746 293.991 723.357 293.599 722.372 293.383L721.848 293.268C721.204 293.128 720.952 292.872 720.952 292.5C720.952 292.019 721.407 291.731 721.996 291.731C722.611 291.731 723.02 292.048 723.072 292.565H723.661C723.635 291.763 722.954 291.201 722.012 291.201C721.034 291.201 720.347 291.747 720.347 292.526C720.347 293.196 720.756 293.625 721.701 293.831L722.225 293.946C722.879 294.089 723.141 294.351 723.141 294.747C723.141 295.212 722.676 295.549 722.035 295.549C721.358 295.549 720.887 295.241 720.818 294.734H720.229ZM725.342 296.059C725.8 296.059 726.232 295.804 726.435 295.414H726.448V296H726.988V293.648C726.988 292.971 726.484 292.539 725.686 292.539C724.881 292.539 724.377 292.99 724.338 293.579H724.888C724.96 293.245 725.234 293.039 725.673 293.039C726.144 293.039 726.419 293.288 726.419 293.703V293.988L725.444 294.044C724.659 294.089 724.21 294.456 724.21 295.038C724.21 295.65 724.665 296.059 725.342 296.059ZM725.47 295.575C725.061 295.575 724.789 295.362 724.789 295.038C724.789 294.718 725.051 294.515 725.509 294.485L726.419 294.43V294.708C726.419 295.198 726.006 295.575 725.47 295.575ZM730.501 292.598H729.909L728.967 295.395H728.954L728.015 292.598H727.416L728.669 296H729.252L730.501 292.598ZM733.109 295.025C733.014 295.346 732.697 295.565 732.265 295.565C731.653 295.565 731.27 295.136 731.27 294.485V294.453H733.711V294.237C733.711 293.206 733.145 292.539 732.226 292.539C731.287 292.539 730.685 293.255 730.685 294.312C730.685 295.382 731.277 296.059 732.252 296.059C732.994 296.059 733.57 295.621 733.668 295.025H733.109ZM732.216 293.033C732.752 293.033 733.109 293.438 733.122 294.008H731.274C731.31 293.442 731.682 293.033 732.216 293.033Z" fill="white"/>
<rect x="763" y="285" width="53" height="17" rx="2" fill="#FF464E"/>
<path d="M783.401 296.079C784.445 296.079 785.145 295.558 785.361 294.626H784.765C784.595 295.202 784.098 295.535 783.405 295.535C782.472 295.535 781.88 294.796 781.88 293.638C781.88 292.49 782.479 291.744 783.401 291.744C784.075 291.744 784.615 292.149 784.765 292.768H785.361C785.21 291.826 784.429 291.201 783.401 291.201C782.109 291.201 781.275 292.156 781.275 293.638C781.275 295.133 782.099 296.079 783.401 296.079ZM785.999 296H786.568V291.279H785.999V296ZM789.594 295.025C789.499 295.346 789.182 295.565 788.75 295.565C788.138 295.565 787.756 295.136 787.756 294.485V294.453H790.196V294.237C790.196 293.206 789.63 292.539 788.711 292.539C787.772 292.539 787.17 293.255 787.17 294.312C787.17 295.382 787.762 296.059 788.737 296.059C789.48 296.059 790.055 295.621 790.154 295.025H789.594ZM788.701 293.033C789.238 293.033 789.594 293.438 789.607 294.008H787.759C787.795 293.442 788.168 293.033 788.701 293.033ZM791.766 296.059C792.224 296.059 792.656 295.804 792.859 295.414H792.872V296H793.412V293.648C793.412 292.971 792.908 292.539 792.11 292.539C791.305 292.539 790.801 292.99 790.762 293.579H791.312C791.384 293.245 791.658 293.039 792.097 293.039C792.568 293.039 792.843 293.288 792.843 293.703V293.988L791.868 294.044C791.083 294.089 790.635 294.456 790.635 295.038C790.635 295.65 791.089 296.059 791.766 296.059ZM791.894 295.575C791.485 295.575 791.214 295.362 791.214 295.038C791.214 294.718 791.475 294.515 791.933 294.485L792.843 294.43V294.708C792.843 295.198 792.431 295.575 791.894 295.575ZM794.135 296H794.704V293.88C794.704 293.399 794.992 293.082 795.434 293.082C795.571 293.082 795.692 293.098 795.738 293.115V292.562C795.692 292.555 795.607 292.539 795.509 292.539C795.11 292.539 794.796 292.778 794.685 293.154H794.672V292.598H794.135V296Z" fill="white"/>
<g opacity="0.3" filter="url(#filter6_f)">
<rect x="517.875" y="340.475" width="209.525" height="50.025" rx="5" fill="#A0A0A0"/>
</g>
<g clip-path="url(#clip3)">
<path d="M507 323C507 320.239 509.239 318 512 318H734C736.761 318 739 320.239 739 323V376.8C739 379.561 736.761 381.8 734 381.8H512C509.239 381.8 507 379.561 507 376.8V323Z" fill="white"/>
<rect x="507" y="318" width="232" height="63.8" fill="white"/>
<path d="M518.851 334.801C520.262 334.801 521.222 334.058 521.455 332.792H520.508C520.317 333.531 519.709 333.969 518.856 333.969C517.73 333.969 517.016 333.064 517.016 331.632C517.016 330.213 517.738 329.3 518.851 329.3C519.684 329.3 520.338 329.814 520.508 330.6H521.451C521.29 329.321 520.24 328.467 518.851 328.467C517.139 328.467 516.043 329.691 516.043 331.632C516.043 333.586 517.131 334.801 518.851 334.801ZM524.123 334.784C525.402 334.784 526.243 333.905 526.243 332.465C526.243 331.029 525.398 330.15 524.123 330.15C522.849 330.15 522.003 331.029 522.003 332.465C522.003 333.905 522.844 334.784 524.123 334.784ZM524.123 334.028C523.405 334.028 522.938 333.459 522.938 332.465C522.938 331.475 523.405 330.906 524.123 330.906C524.841 330.906 525.308 331.475 525.308 332.465C525.308 333.459 524.845 334.028 524.123 334.028ZM529.28 330.158C528.635 330.158 528.121 330.485 527.857 330.999H527.84V330.23H526.952V336.178H527.87V333.964H527.891C528.146 334.461 528.656 334.776 529.297 334.776C530.419 334.776 531.162 333.879 531.162 332.465C531.162 331.05 530.414 330.158 529.28 330.158ZM529.038 333.998C528.333 333.998 527.866 333.395 527.866 332.465C527.866 331.543 528.337 330.931 529.038 330.931C529.765 330.931 530.219 331.53 530.219 332.465C530.219 333.404 529.765 333.998 529.038 333.998ZM532.199 336.364C533.125 336.364 533.567 336.016 533.949 334.933L535.623 330.23H534.654L533.524 333.867H533.507L532.377 330.23H531.383L532.997 334.703C532.997 334.708 532.917 334.971 532.917 334.98C532.776 335.438 532.547 335.617 532.122 335.617C532.046 335.617 531.893 335.617 531.825 335.6V336.343C531.893 336.356 532.122 336.364 532.199 336.364ZM537.963 334.699H538.881V328.569H537.963V334.699ZM540.312 329.508C540.606 329.508 540.839 329.27 540.839 328.981C540.839 328.688 540.606 328.455 540.312 328.455C540.019 328.455 539.781 328.688 539.781 328.981C539.781 329.27 540.019 329.508 540.312 329.508ZM539.854 334.699H540.771V330.23H539.854V334.699ZM541.71 334.699H542.628V332.095C542.628 331.403 543.044 330.944 543.69 330.944C544.327 330.944 544.641 331.314 544.641 331.985V334.699H545.563V331.806C545.563 330.783 544.998 330.154 544.012 330.154C543.324 330.154 542.848 330.468 542.606 330.978H542.585V330.23H541.71V334.699ZM547.411 332.146H547.402V328.569H546.485V334.699H547.402V333.093L547.785 332.715L549.301 334.699H550.368L548.443 332.155L550.295 330.23H549.216L547.411 332.146Z" fill="#393939"/>
<path d="M519.561 365.007C519.561 364.735 519.464 364.525 519.272 364.378C519.082 364.231 518.738 364.082 518.24 363.932C517.741 363.782 517.345 363.615 517.05 363.431C516.487 363.077 516.205 362.615 516.205 362.046C516.205 361.547 516.407 361.137 516.812 360.814C517.22 360.491 517.748 360.329 518.397 360.329C518.827 360.329 519.211 360.409 519.548 360.567C519.885 360.726 520.15 360.953 520.342 361.247C520.535 361.539 520.631 361.863 520.631 362.22H519.561C519.561 361.897 519.459 361.645 519.255 361.464C519.054 361.28 518.765 361.188 518.388 361.188C518.037 361.188 517.764 361.263 517.568 361.413C517.376 361.563 517.279 361.772 517.279 362.041C517.279 362.268 517.384 362.458 517.594 362.611C517.803 362.761 518.149 362.908 518.63 363.052C519.112 363.194 519.498 363.357 519.79 363.541C520.082 363.722 520.296 363.932 520.432 364.17C520.567 364.405 520.635 364.681 520.635 364.998C520.635 365.514 520.437 365.924 520.041 366.23C519.647 366.533 519.112 366.685 518.435 366.685C517.987 366.685 517.575 366.602 517.199 366.438C516.825 366.271 516.533 366.042 516.324 365.75C516.117 365.458 516.014 365.118 516.014 364.73H517.088C517.088 365.082 517.204 365.354 517.437 365.546C517.669 365.739 518.002 365.835 518.435 365.835C518.809 365.835 519.089 365.76 519.276 365.61C519.466 365.457 519.561 365.256 519.561 365.007ZM522.496 362.504C522.833 362.114 523.259 361.918 523.775 361.918C524.755 361.918 525.252 362.478 525.266 363.596V366.6H524.234V363.634C524.234 363.317 524.164 363.094 524.025 362.963C523.889 362.83 523.688 362.764 523.422 362.764C523.009 362.764 522.7 362.948 522.496 363.316V366.6H521.464V360.075H522.496V362.504ZM529.059 366.6C529.014 366.512 528.974 366.369 528.94 366.171C528.612 366.513 528.21 366.685 527.734 366.685C527.272 366.685 526.896 366.553 526.604 366.29C526.312 366.026 526.166 365.7 526.166 365.312C526.166 364.823 526.348 364.447 526.71 364.187C527.075 363.923 527.597 363.792 528.273 363.792H528.906V363.49C528.906 363.252 528.84 363.062 528.707 362.921C528.574 362.776 528.371 362.704 528.099 362.704C527.864 362.704 527.672 362.764 527.522 362.883C527.371 362.999 527.296 363.147 527.296 363.329H526.264C526.264 363.077 526.348 362.842 526.515 362.623C526.682 362.403 526.908 362.23 527.194 362.105C527.483 361.981 527.805 361.918 528.159 361.918C528.697 361.918 529.126 362.054 529.446 362.326C529.766 362.595 529.93 362.975 529.939 363.465V365.538C529.939 365.951 529.997 366.281 530.113 366.527V366.6H529.059ZM527.925 365.856C528.129 365.856 528.32 365.807 528.499 365.708C528.68 365.608 528.816 365.475 528.906 365.308V364.442H528.35C527.968 364.442 527.68 364.508 527.488 364.641C527.295 364.774 527.199 364.963 527.199 365.206C527.199 365.404 527.264 365.563 527.394 365.682C527.527 365.798 527.704 365.856 527.925 365.856ZM533.426 362.946C533.29 362.924 533.15 362.912 533.006 362.912C532.533 362.912 532.214 363.094 532.05 363.456V366.6H531.018V362.003H532.003L532.029 362.517C532.278 362.118 532.623 361.918 533.065 361.918C533.212 361.918 533.334 361.938 533.431 361.978L533.426 362.946ZM536.018 366.685C535.363 366.685 534.832 366.479 534.425 366.069C534.02 365.655 533.817 365.106 533.817 364.42V364.293C533.817 363.834 533.905 363.425 534.081 363.065C534.259 362.703 534.508 362.421 534.828 362.22C535.148 362.019 535.505 361.918 535.899 361.918C536.525 361.918 537.007 362.118 537.347 362.517C537.69 362.917 537.861 363.482 537.861 364.212V364.629H534.858C534.889 365.008 535.015 365.308 535.236 365.529C535.46 365.75 535.74 365.86 536.077 365.86C536.55 365.86 536.935 365.669 537.233 365.287L537.789 365.818C537.605 366.093 537.359 366.306 537.05 366.459C536.744 366.61 536.4 366.685 536.018 366.685ZM535.894 362.747C535.611 362.747 535.382 362.846 535.206 363.044C535.033 363.242 534.923 363.518 534.875 363.872H536.842V363.796C536.819 363.45 536.727 363.19 536.566 363.014C536.404 362.836 536.18 362.747 535.894 362.747ZM544.866 364.348C544.866 365.062 544.706 365.63 544.386 366.052C544.069 366.474 543.632 366.685 543.074 366.685C542.536 366.685 542.116 366.491 541.816 366.103L541.765 366.6H540.831V360.075H541.863V362.445C542.16 362.094 542.561 361.918 543.065 361.918C543.626 361.918 544.066 362.126 544.386 362.543C544.706 362.959 544.866 363.541 544.866 364.289V364.348ZM543.834 364.259C543.834 363.76 543.746 363.387 543.571 363.137C543.395 362.888 543.14 362.764 542.806 362.764C542.359 362.764 542.044 362.959 541.863 363.35V365.244C542.047 365.644 542.364 365.843 542.815 365.843C543.137 365.843 543.387 365.723 543.562 365.482C543.738 365.242 543.828 364.878 543.834 364.391V364.259ZM547.292 365.121L548.227 362.003H549.327L547.5 367.296C547.22 368.069 546.744 368.456 546.073 368.456C545.923 368.456 545.757 368.431 545.576 368.38V367.581L545.771 367.594C546.032 367.594 546.227 367.546 546.357 367.449C546.49 367.356 546.595 367.197 546.672 366.973L546.82 366.578L545.206 362.003H546.319L547.292 365.121ZM553.061 362.003L553.091 362.483C553.413 362.107 553.855 361.918 554.416 361.918C555.03 361.918 555.451 362.153 555.678 362.623C556.012 362.153 556.482 361.918 557.088 361.918C557.595 361.918 557.972 362.058 558.218 362.339C558.467 362.619 558.595 363.033 558.6 363.579V366.6H557.568V363.609C557.568 363.317 557.504 363.103 557.377 362.968C557.249 362.832 557.038 362.764 556.744 362.764C556.509 362.764 556.316 362.827 556.166 362.955C556.019 363.079 555.915 363.244 555.856 363.448L555.86 366.6H554.828V363.575C554.814 363.034 554.538 362.764 554 362.764C553.586 362.764 553.293 362.932 553.12 363.269V366.6H552.088V362.003H553.061ZM562.406 366.6C562.361 366.512 562.322 366.369 562.288 366.171C561.959 366.513 561.557 366.685 561.081 366.685C560.619 366.685 560.243 366.553 559.951 366.29C559.659 366.026 559.514 365.7 559.514 365.312C559.514 364.823 559.695 364.447 560.057 364.187C560.423 363.923 560.944 363.792 561.621 363.792H562.254V363.49C562.254 363.252 562.187 363.062 562.054 362.921C561.921 362.776 561.718 362.704 561.446 362.704C561.211 362.704 561.019 362.764 560.869 362.883C560.719 362.999 560.644 363.147 560.644 363.329H559.611C559.611 363.077 559.695 362.842 559.862 362.623C560.029 362.403 560.256 362.23 560.542 362.105C560.83 361.981 561.152 361.918 561.506 361.918C562.044 361.918 562.473 362.054 562.793 362.326C563.113 362.595 563.277 362.975 563.286 363.465V365.538C563.286 365.951 563.344 366.281 563.46 366.527V366.6H562.406ZM561.272 365.856C561.476 365.856 561.667 365.807 561.846 365.708C562.027 365.608 562.163 365.475 562.254 365.308V364.442H561.697C561.315 364.442 561.027 364.508 560.835 364.641C560.642 364.774 560.546 364.963 560.546 365.206C560.546 365.404 560.611 365.563 560.741 365.682C560.874 365.798 561.051 365.856 561.272 365.856ZM565.465 366.6H564.433V362.003H565.465V366.6ZM564.369 360.81C564.369 360.651 564.419 360.519 564.518 360.414C564.62 360.31 564.764 360.257 564.951 360.257C565.138 360.257 565.282 360.31 565.384 360.414C565.486 360.519 565.537 360.651 565.537 360.81C565.537 360.965 565.486 361.096 565.384 361.2C565.282 361.302 565.138 361.353 564.951 361.353C564.764 361.353 564.62 361.302 564.518 361.2C564.419 361.096 564.369 360.965 564.369 360.81ZM567.691 366.6H566.659V360.075H567.691V366.6Z" fill="#393939"/>
<line x1="507" y1="345.188" x2="739" y2="345.188" stroke="#EBEBEB" stroke-width="0.725"/>
<rect x="586.025" y="354.25" width="144.275" height="18.85" rx="2.175" fill="#F9F9FA"/>
<path fill-rule="evenodd" clip-rule="evenodd" d="M716.398 358.965L717.058 363.583L717.431 363.676L717.058 363.77L716.398 368.388L725.821 363.676L716.398 358.965ZM717.924 362.802L717.617 360.653L723.66 363.675L717.617 366.697L717.924 364.548L721.417 363.675L717.924 362.802Z" fill="#393939"/>
<path d="M597.227 366.685C596.604 366.685 596.097 366.481 595.706 366.073C595.315 365.662 595.12 365.114 595.12 364.429V364.284C595.12 363.828 595.206 363.422 595.379 363.065C595.554 362.706 595.798 362.425 596.109 362.224C596.424 362.02 596.764 361.918 597.129 361.918C597.727 361.918 598.191 362.115 598.522 362.509C598.854 362.902 599.019 363.466 599.019 364.199V364.527H595.906C595.917 364.98 596.049 365.346 596.301 365.627C596.556 365.904 596.878 366.043 597.269 366.043C597.547 366.043 597.782 365.986 597.974 365.873C598.167 365.76 598.335 365.61 598.48 365.423L598.96 365.797C598.575 366.389 597.997 366.685 597.227 366.685ZM597.129 362.564C596.812 362.564 596.546 362.68 596.33 362.912C596.115 363.142 595.982 363.465 595.931 363.881H598.233V363.821C598.211 363.422 598.103 363.113 597.911 362.895C597.718 362.674 597.458 362.564 597.129 362.564ZM601.475 363.681L602.494 362.003H603.412L601.908 364.276L603.459 366.6H602.55L601.488 364.879L600.425 366.6H599.512L601.063 364.276L599.559 362.003H600.468L601.475 363.681ZM607.086 366.6C607.041 366.509 607.004 366.348 606.976 366.115C606.611 366.495 606.175 366.685 605.668 366.685C605.214 366.685 604.842 366.557 604.55 366.302C604.261 366.045 604.117 365.719 604.117 365.325C604.117 364.847 604.298 364.476 604.661 364.212C605.026 363.946 605.539 363.813 606.199 363.813H606.963V363.452C606.963 363.177 606.881 362.959 606.717 362.798C606.553 362.633 606.31 362.551 605.99 362.551C605.71 362.551 605.475 362.622 605.285 362.764C605.096 362.905 605.001 363.077 605.001 363.278H604.21C604.21 363.048 604.291 362.827 604.453 362.615C604.617 362.4 604.838 362.23 605.115 362.105C605.396 361.981 605.703 361.918 606.037 361.918C606.567 361.918 606.982 362.051 607.282 362.318C607.582 362.581 607.738 362.945 607.749 363.409V365.525C607.749 365.947 607.803 366.282 607.911 366.532V366.6H607.086ZM605.782 366.001C606.029 366.001 606.262 365.937 606.483 365.809C606.704 365.682 606.864 365.516 606.963 365.312V364.369H606.347C605.384 364.369 604.903 364.651 604.903 365.215C604.903 365.461 604.985 365.654 605.149 365.792C605.314 365.931 605.525 366.001 605.782 366.001ZM609.72 362.003L609.741 362.513C610.078 362.117 610.533 361.918 611.105 361.918C611.748 361.918 612.185 362.165 612.418 362.657C612.571 362.437 612.769 362.258 613.012 362.122C613.259 361.986 613.549 361.918 613.883 361.918C614.892 361.918 615.404 362.452 615.421 363.52V366.6H614.635V363.567C614.635 363.238 614.56 362.993 614.41 362.832C614.26 362.667 614.008 362.585 613.654 362.585C613.362 362.585 613.12 362.673 612.927 362.849C612.735 363.021 612.623 363.255 612.592 363.55V366.6H611.802V363.588C611.802 362.919 611.475 362.585 610.82 362.585C610.305 362.585 609.952 362.805 609.763 363.244V366.6H608.977V362.003H609.72ZM620.493 364.352C620.493 365.052 620.333 365.615 620.013 366.043C619.693 366.471 619.26 366.685 618.713 366.685C618.155 366.685 617.716 366.508 617.396 366.154V368.367H616.611V362.003H617.328L617.367 362.513C617.687 362.117 618.131 361.918 618.701 361.918C619.253 361.918 619.689 362.126 620.009 362.543C620.332 362.959 620.493 363.538 620.493 364.28V364.352ZM619.707 364.263C619.707 363.745 619.597 363.336 619.376 363.035C619.155 362.735 618.852 362.585 618.467 362.585C617.991 362.585 617.634 362.796 617.396 363.218V365.414C617.631 365.834 617.991 366.043 618.475 366.043C618.852 366.043 619.151 365.894 619.372 365.597C619.596 365.297 619.707 364.852 619.707 364.263ZM622.35 366.6H621.564V360.075H622.35V366.6ZM625.519 366.685C624.896 366.685 624.389 366.481 623.998 366.073C623.607 365.662 623.412 365.114 623.412 364.429V364.284C623.412 363.828 623.498 363.422 623.671 363.065C623.846 362.706 624.09 362.425 624.401 362.224C624.716 362.02 625.056 361.918 625.421 361.918C626.019 361.918 626.483 362.115 626.814 362.509C627.146 362.902 627.311 363.466 627.311 364.199V364.527H624.198C624.209 364.98 624.341 365.346 624.593 365.627C624.848 365.904 625.17 366.043 625.561 366.043C625.839 366.043 626.074 365.986 626.266 365.873C626.459 365.76 626.627 365.61 626.772 365.423L627.252 365.797C626.867 366.389 626.289 366.685 625.519 366.685ZM625.421 362.564C625.104 362.564 624.838 362.68 624.622 362.912C624.407 363.142 624.274 363.465 624.223 363.881H626.525V363.821C626.503 363.422 626.395 363.113 626.203 362.895C626.01 362.674 625.75 362.564 625.421 362.564ZM635.013 364.467C634.979 365.152 634.809 365.693 634.503 366.09C634.197 366.486 633.788 366.685 633.276 366.685C632.746 366.685 632.406 366.447 632.256 365.971C632.103 366.212 631.928 366.391 631.729 366.51C631.534 366.627 631.331 366.685 631.122 366.685C630.72 366.685 630.415 366.52 630.209 366.192C630.002 365.863 629.925 365.409 629.979 364.828C630.022 364.361 630.128 363.945 630.298 363.579C630.471 363.211 630.691 362.922 630.96 362.713C631.232 362.503 631.517 362.398 631.814 362.398C632.044 362.398 632.249 362.429 632.43 362.492C632.612 362.551 632.815 362.67 633.042 362.849L632.821 365.202C632.767 365.856 632.949 366.183 633.365 366.183C633.685 366.183 633.944 366.025 634.142 365.708C634.34 365.39 634.448 364.977 634.465 364.467C634.519 363.365 634.314 362.526 633.849 361.948C633.388 361.37 632.684 361.081 631.738 361.081C631.169 361.081 630.663 361.223 630.221 361.506C629.779 361.787 629.431 362.193 629.176 362.725C628.921 363.258 628.778 363.872 628.747 364.569C628.713 365.271 628.798 365.882 629.002 366.4C629.206 366.915 629.516 367.309 629.932 367.581C630.352 367.856 630.857 367.993 631.449 367.993C631.704 367.993 631.959 367.962 632.214 367.9C632.471 367.837 632.685 367.756 632.855 367.657L633.012 368.146C632.837 368.256 632.603 368.347 632.311 368.418C632.022 368.489 631.729 368.524 631.432 368.524C630.724 368.524 630.115 368.364 629.605 368.044C629.096 367.727 628.713 367.268 628.458 366.668C628.206 366.07 628.097 365.371 628.131 364.569C628.165 363.79 628.339 363.091 628.654 362.471C628.968 361.847 629.394 361.367 629.932 361.03C630.471 360.691 631.078 360.521 631.755 360.521C632.46 360.521 633.065 360.679 633.569 360.996C634.073 361.314 634.448 361.771 634.694 362.369C634.941 362.966 635.047 363.666 635.013 364.467ZM630.655 364.828C630.615 365.23 630.652 365.539 630.765 365.754C630.881 365.969 631.064 366.077 631.313 366.077C631.483 366.077 631.646 366.005 631.802 365.86C631.96 365.716 632.09 365.509 632.192 365.24L632.197 365.202L632.392 363.065C632.233 362.983 632.064 362.942 631.882 362.942C631.551 362.942 631.276 363.111 631.058 363.448C630.843 363.785 630.708 364.245 630.655 364.828ZM637.948 366.685C637.325 366.685 636.819 366.481 636.428 366.073C636.037 365.662 635.841 365.114 635.841 364.429V364.284C635.841 363.828 635.928 363.422 636.101 363.065C636.276 362.706 636.52 362.425 636.831 362.224C637.146 362.02 637.485 361.918 637.851 361.918C638.448 361.918 638.913 362.115 639.244 362.509C639.575 362.902 639.741 363.466 639.741 364.199V364.527H636.627C636.639 364.98 636.77 365.346 637.022 365.627C637.277 365.904 637.6 366.043 637.991 366.043C638.269 366.043 638.504 365.986 638.696 365.873C638.889 365.76 639.057 365.61 639.202 365.423L639.682 365.797C639.297 366.389 638.719 366.685 637.948 366.685ZM637.851 362.564C637.534 362.564 637.267 362.68 637.052 362.912C636.837 363.142 636.704 363.465 636.653 363.881H638.955V363.821C638.933 363.422 638.825 363.113 638.632 362.895C638.44 362.674 638.179 362.564 637.851 362.564ZM641.394 362.003L641.415 362.513C641.752 362.117 642.206 361.918 642.779 361.918C643.421 361.918 643.859 362.165 644.091 362.657C644.244 362.437 644.442 362.258 644.686 362.122C644.932 361.986 645.223 361.918 645.557 361.918C646.565 361.918 647.078 362.452 647.095 363.52V366.6H646.309V363.567C646.309 363.238 646.234 362.993 646.083 362.832C645.933 362.667 645.681 362.585 645.327 362.585C645.036 362.585 644.794 362.673 644.601 362.849C644.408 363.021 644.296 363.255 644.265 363.55V366.6H643.475V363.588C643.475 362.919 643.148 362.585 642.494 362.585C641.978 362.585 641.626 362.805 641.436 363.244V366.6H640.65V362.003H641.394ZM651.122 366.6C651.076 366.509 651.04 366.348 651.011 366.115C650.646 366.495 650.21 366.685 649.703 366.685C649.25 366.685 648.877 366.557 648.586 366.302C648.297 366.045 648.152 365.719 648.152 365.325C648.152 364.847 648.334 364.476 648.696 364.212C649.061 363.946 649.574 363.813 650.234 363.813H650.998V363.452C650.998 363.177 650.916 362.959 650.752 362.798C650.588 362.633 650.346 362.551 650.026 362.551C649.745 362.551 649.51 362.622 649.321 362.764C649.131 362.905 649.036 363.077 649.036 363.278H648.246C648.246 363.048 648.326 362.827 648.488 362.615C648.652 362.4 648.873 362.23 649.151 362.105C649.431 361.981 649.738 361.918 650.072 361.918C650.602 361.918 651.017 362.051 651.317 362.318C651.617 362.581 651.773 362.945 651.784 363.409V365.525C651.784 365.947 651.838 366.282 651.946 366.532V366.6H651.122ZM649.818 366.001C650.064 366.001 650.298 365.937 650.518 365.809C650.739 365.682 650.899 365.516 650.998 365.312V364.369H650.383C649.42 364.369 648.938 364.651 648.938 365.215C648.938 365.461 649.02 365.654 649.185 365.792C649.349 365.931 649.56 366.001 649.818 366.001ZM653.87 366.6H653.084V362.003H653.87V366.6ZM653.021 360.784C653.021 360.657 653.059 360.549 653.135 360.461C653.215 360.373 653.331 360.329 653.484 360.329C653.637 360.329 653.753 360.373 653.832 360.461C653.911 360.549 653.951 360.657 653.951 360.784C653.951 360.911 653.911 361.018 653.832 361.103C653.753 361.188 653.637 361.23 653.484 361.23C653.331 361.23 653.215 361.188 653.135 361.103C653.059 361.018 653.021 360.911 653.021 360.784ZM655.986 366.6H655.2V360.075H655.986V366.6ZM657.264 366.188C657.264 366.052 657.304 365.938 657.383 365.848C657.465 365.757 657.587 365.712 657.749 365.712C657.91 365.712 658.032 365.757 658.114 365.848C658.199 365.938 658.241 366.052 658.241 366.188C658.241 366.318 658.199 366.427 658.114 366.515C658.032 366.602 657.91 366.646 657.749 366.646C657.587 366.646 657.465 366.602 657.383 366.515C657.304 366.427 657.264 366.318 657.264 366.188ZM661.385 366.043C661.665 366.043 661.91 365.958 662.12 365.788C662.329 365.618 662.446 365.406 662.468 365.151H663.212C663.197 365.414 663.107 365.665 662.94 365.903C662.773 366.141 662.549 366.331 662.269 366.472C661.991 366.614 661.696 366.685 661.385 366.685C660.759 366.685 660.261 366.476 659.89 366.06C659.521 365.641 659.337 365.069 659.337 364.344V364.212C659.337 363.765 659.42 363.367 659.584 363.019C659.748 362.67 659.983 362.4 660.289 362.207C660.598 362.015 660.962 361.918 661.381 361.918C661.896 361.918 662.324 362.073 662.664 362.381C663.006 362.69 663.189 363.091 663.212 363.583H662.468C662.446 363.286 662.332 363.043 662.128 362.853C661.927 362.66 661.678 362.564 661.381 362.564C660.981 362.564 660.671 362.708 660.45 362.997C660.232 363.283 660.123 363.698 660.123 364.242V364.391C660.123 364.92 660.232 365.328 660.45 365.614C660.668 365.9 660.98 366.043 661.385 366.043ZM663.887 364.259C663.887 363.809 663.975 363.404 664.15 363.044C664.329 362.684 664.575 362.407 664.89 362.211C665.207 362.016 665.568 361.918 665.973 361.918C666.599 361.918 667.104 362.135 667.489 362.568C667.877 363.002 668.071 363.578 668.071 364.297V364.352C668.071 364.8 667.985 365.202 667.812 365.559C667.642 365.913 667.397 366.189 667.077 366.387C666.76 366.585 666.395 366.685 665.981 366.685C665.358 366.685 664.853 366.468 664.465 366.035C664.08 365.601 663.887 365.028 663.887 364.314V364.259ZM664.677 364.352C664.677 364.862 664.795 365.271 665.03 365.58C665.268 365.889 665.585 366.043 665.981 366.043C666.381 366.043 666.698 365.887 666.933 365.576C667.168 365.261 667.285 364.823 667.285 364.259C667.285 363.755 667.165 363.347 666.924 363.035C666.687 362.721 666.369 362.564 665.973 362.564C665.585 362.564 665.272 362.718 665.034 363.027C664.796 363.336 664.677 363.777 664.677 364.352ZM669.796 362.003L669.817 362.513C670.154 362.117 670.609 361.918 671.181 361.918C671.824 361.918 672.261 362.165 672.494 362.657C672.647 362.437 672.845 362.258 673.088 362.122C673.335 361.986 673.625 361.918 673.959 361.918C674.967 361.918 675.48 362.452 675.497 363.52V366.6H674.711V363.567C674.711 363.238 674.636 362.993 674.486 362.832C674.336 362.667 674.084 362.585 673.73 362.585C673.438 362.585 673.196 362.673 673.003 362.849C672.811 363.021 672.699 363.255 672.668 363.55V366.6H671.878V363.588C671.878 362.919 671.551 362.585 670.896 362.585C670.381 362.585 670.028 362.805 669.839 363.244V366.6H669.053V362.003H669.796Z" fill="#D3D3D3"/>
</g>
<rect x="440.35" y="206.35" width="78.3" height="33.3" fill="#F9F9FA" stroke="#5F00D9" stroke-width="0.7" stroke-dasharray="3 3"/>
<path d="M456.616 216.8C458.312 216.8 459.699 217.323 460.776 218.368C461.853 219.413 462.392 220.757 462.392 222.4C462.392 224.032 461.848 225.376 460.76 226.432C459.683 227.477 458.301 228 456.616 228H452.088V216.8H456.616ZM456.472 225.168C457.293 225.168 457.96 224.912 458.472 224.4C458.984 223.888 459.24 223.216 459.24 222.384C459.24 221.563 458.984 220.901 458.472 220.4C457.971 219.888 457.304 219.632 456.472 219.632H455.176V225.168H456.472ZM472.762 223.6C472.762 223.845 472.741 224.107 472.698 224.384H466.282C466.378 224.875 466.575 225.248 466.874 225.504C467.183 225.76 467.573 225.888 468.042 225.888C468.277 225.888 468.495 225.856 468.698 225.792C468.901 225.728 469.077 225.637 469.226 225.52C469.386 225.392 469.514 225.243 469.61 225.072H472.57C472.271 226.064 471.711 226.848 470.89 227.424C470.079 228 469.13 228.288 468.042 228.288C466.698 228.288 465.578 227.851 464.682 226.976C463.797 226.091 463.354 224.992 463.354 223.68C463.354 222.805 463.557 222.016 463.962 221.312C464.367 220.608 464.927 220.059 465.642 219.664C466.357 219.269 467.157 219.072 468.042 219.072C468.959 219.072 469.775 219.275 470.49 219.68C471.215 220.075 471.775 220.619 472.17 221.312C472.565 221.995 472.762 222.757 472.762 223.6ZM468.042 221.408C467.615 221.408 467.253 221.525 466.954 221.76C466.666 221.984 466.458 222.309 466.33 222.736H469.834C469.567 221.851 468.97 221.408 468.042 221.408ZM477.444 228.288C476.271 228.288 475.343 228.005 474.66 227.44C473.988 226.875 473.647 226.117 473.636 225.168H476.5C476.5 225.467 476.591 225.696 476.772 225.856C476.953 226.016 477.193 226.096 477.492 226.096C477.641 226.096 477.78 226.075 477.908 226.032C478.036 225.979 478.137 225.899 478.212 225.792C478.297 225.685 478.34 225.563 478.34 225.424C478.34 225.264 478.265 225.131 478.116 225.024C477.977 224.917 477.817 224.843 477.636 224.8C477.455 224.747 477.193 224.693 476.852 224.64C476.521 224.587 476.239 224.533 476.004 224.48C475.78 224.427 475.513 224.336 475.204 224.208C474.895 224.069 474.644 223.909 474.452 223.728C474.26 223.547 474.095 223.301 473.956 222.992C473.817 222.683 473.748 222.325 473.748 221.92C473.748 221.056 474.084 220.368 474.756 219.856C475.428 219.333 476.319 219.072 477.428 219.072C478.527 219.072 479.407 219.339 480.068 219.872C480.74 220.405 481.081 221.115 481.092 222H478.308C478.308 221.819 478.265 221.669 478.18 221.552C478.105 221.424 477.999 221.333 477.86 221.28C477.732 221.216 477.577 221.184 477.396 221.184C477.151 221.184 476.953 221.243 476.804 221.36C476.665 221.477 476.596 221.632 476.596 221.824C476.596 221.909 476.612 221.984 476.644 222.048C476.676 222.112 476.729 222.171 476.804 222.224C476.889 222.267 476.964 222.304 477.028 222.336C477.092 222.368 477.193 222.4 477.332 222.432C477.481 222.464 477.599 222.491 477.684 222.512C477.769 222.523 477.903 222.544 478.084 222.576C478.308 222.619 478.463 222.651 478.548 222.672C478.644 222.683 478.804 222.715 479.028 222.768C479.252 222.821 479.417 222.869 479.524 222.912C479.631 222.944 479.775 223.003 479.956 223.088C480.148 223.173 480.292 223.259 480.388 223.344C480.484 223.429 480.596 223.541 480.724 223.68C480.863 223.808 480.964 223.947 481.028 224.096C481.092 224.245 481.145 224.427 481.188 224.64C481.241 224.843 481.268 225.061 481.268 225.296C481.268 226.203 480.916 226.928 480.212 227.472C479.519 228.016 478.596 228.288 477.444 228.288ZM482.679 218.272V215.76H485.607V218.272H482.679ZM482.663 228V219.36H485.639V228H482.663ZM494.419 219.36H496.435V227.04C496.435 228.395 496.019 229.467 495.187 230.256C494.355 231.045 493.229 231.44 491.811 231.44C490.989 231.44 490.259 231.307 489.619 231.04C488.979 230.784 488.456 230.405 488.051 229.904C487.645 229.413 487.373 228.832 487.235 228.16H490.115C490.211 228.437 490.413 228.651 490.723 228.8C491.043 228.96 491.395 229.04 491.779 229.04C492.291 229.04 492.717 228.885 493.059 228.576C493.4 228.277 493.571 227.877 493.571 227.376V227.12C492.888 227.557 492.136 227.776 491.315 227.776C490.077 227.776 489.048 227.365 488.227 226.544C487.405 225.712 486.995 224.672 486.995 223.424C486.995 222.197 487.405 221.168 488.227 220.336C489.059 219.504 490.088 219.088 491.315 219.088C492.349 219.088 493.261 219.419 494.051 220.08L494.419 219.36ZM491.811 225.328C492.344 225.328 492.781 225.152 493.123 224.8C493.475 224.437 493.651 223.979 493.651 223.424C493.651 222.88 493.475 222.432 493.123 222.08C492.781 221.728 492.344 221.552 491.811 221.552C491.277 221.552 490.835 221.728 490.483 222.08C490.141 222.432 489.971 222.88 489.971 223.424C489.971 223.979 490.141 224.437 490.483 224.8C490.835 225.152 491.277 225.328 491.811 225.328ZM503.535 219.104C504.538 219.104 505.338 219.435 505.935 220.096C506.543 220.757 506.847 221.637 506.847 222.736V228H503.871V223.136C503.871 222.133 503.498 221.632 502.751 221.632C502.442 221.632 502.175 221.701 501.951 221.84C501.738 221.979 501.572 222.181 501.455 222.448C501.348 222.704 501.295 223.019 501.295 223.392V228H498.319V219.36H500.399L500.815 220.256C501.498 219.488 502.404 219.104 503.535 219.104Z" fill="#FF464E"/>
<circle cx="519" cy="206" r="3" fill="#5F00D9"/>
<circle cx="440" cy="206" r="3" fill="#5F00D9"/>
<circle cx="440" cy="240" r="3" fill="#5F00D9"/>
<circle cx="519" cy="240" r="3" fill="#5F00D9"/>
<defs>
<filter id="filter0_d" x="93" y="0" width="700" height="409" filterUnits="userSpaceOnUse" color-interpolation-filters="sRGB">
<feFlood flood-opacity="0" result="BackgroundImageFix"/>
<feColorMatrix in="SourceAlpha" type="matrix" values="0 0 0 0 0 0 0 0 0 0 0 0 0 0 0 0 0 0 127 0"/>
<feOffset dy="14"/>
<feGaussianBlur stdDeviation="17"/>
<feColorMatrix type="matrix" values="0 0 0 0 0 0 0 0 0 0 0 0 0 0 0 0 0 0 0.07 0"/>
<feBlend mode="normal" in2="BackgroundImageFix" result="effect1_dropShadow"/>
<feBlend mode="normal" in="SourceGraphic" in2="effect1_dropShadow" result="shape"/>
</filter>
<filter id="filter1_f" x="0" y="98" width="224" height="301" filterUnits="userSpaceOnUse" color-interpolation-filters="sRGB">
<feFlood flood-opacity="0" result="BackgroundImageFix"/>
<feBlend mode="normal" in="SourceGraphic" in2="BackgroundImageFix" result="shape"/>
<feGaussianBlur stdDeviation="22" result="effect1_foregroundBlur"/>
</filter>
<filter id="filter2_f" x="127.571" y="299.571" width="277.858" height="151.858" filterUnits="userSpaceOnUse" color-interpolation-filters="sRGB">
<feFlood flood-opacity="0" result="BackgroundImageFix"/>
<feBlend mode="normal" in="SourceGraphic" in2="BackgroundImageFix" result="shape"/>
<feGaussianBlur stdDeviation="16.2145" result="effect1_foregroundBlur"/>
</filter>
<filter id="filter3_f" x="497" y="6" width="259" height="124" filterUnits="userSpaceOnUse" color-interpolation-filters="sRGB">
<feFlood flood-opacity="0" result="BackgroundImageFix"/>
<feBlend mode="normal" in="SourceGraphic" in2="BackgroundImageFix" result="shape"/>
<feGaussianBlur stdDeviation="22" result="effect1_foregroundBlur"/>
</filter>
<filter id="filter4_f" x="657" y="78" width="204" height="303" filterUnits="userSpaceOnUse" color-interpolation-filters="sRGB">
<feFlood flood-opacity="0" result="BackgroundImageFix"/>
<feBlend mode="normal" in="SourceGraphic" in2="BackgroundImageFix" result="shape"/>
<feGaussianBlur stdDeviation="22" result="effect1_foregroundBlur"/>
</filter>
<filter id="filter5_f" x="527" y="-64" width="316" height="316" filterUnits="userSpaceOnUse" color-interpolation-filters="sRGB">
<feFlood flood-opacity="0" result="BackgroundImageFix"/>
<feBlend mode="normal" in="SourceGraphic" in2="BackgroundImageFix" result="shape"/>
<feGaussianBlur stdDeviation="42" result="effect1_foregroundBlur"/>
</filter>
<filter id="filter6_f" x="485.975" y="308.575" width="273.325" height="113.825" filterUnits="userSpaceOnUse" color-interpolation-filters="sRGB">
<feFlood flood-opacity="0" result="BackgroundImageFix"/>
<feBlend mode="normal" in="SourceGraphic" in2="BackgroundImageFix" result="shape"/>
<feGaussianBlur stdDeviation="15.95" result="effect1_foregroundBlur"/>
</filter>
<linearGradient id="paint0_linear" x1="705.5" y1="219" x2="820.5" y2="118" gradientUnits="userSpaceOnUse">
<stop stop-color="#060606"/>
<stop offset="1" stop-color="#0015F5"/>
</linearGradient>
<linearGradient id="paint1_linear" x1="705.5" y1="219" x2="820.5" y2="118" gradientUnits="userSpaceOnUse">
<stop stop-color="#FFB742"/>
<stop offset="1" stop-color="#FF464E"/>
</linearGradient>
<clipPath id="clip0">
<rect x="27" y="122" width="171" height="214" rx="5" fill="white"/>
</clipPath>
<clipPath id="clip1">
<rect x="144" y="323" width="241.404" height="86" rx="5" fill="white"/>
</clipPath>
<clipPath id="clip2">
<rect x="530" y="26" width="193" height="50" fill="white"/>
</clipPath>
<clipPath id="clip3">
<path d="M507 323C507 320.239 509.239 318 512 318H734C736.761 318 739 320.239 739 323V376.8C739 379.561 736.761 381.8 734 381.8H512C509.239 381.8 507 379.561 507 376.8V323Z" fill="white"/>
</clipPath>
</defs>
</svg>
