<svg width="510" height="525" viewBox="0 0 510 525" fill="none" xmlns="http://www.w3.org/2000/svg">
<rect opacity="0.05" x="14" y="9" width="472" height="472" fill="white"/>
<g filter="url(#filter0_d)">
<rect x="14" y="116" width="472" height="259" rx="5" fill="#F9F9FA"/>
</g>
<rect x="64" y="166" width="208" height="53" fill="white"/>
<rect x="64" y="229" width="372" height="96" fill="white"/>
<g opacity="0.3" filter="url(#filter1_f)">
<rect x="350" y="266" width="116" height="215" fill="#A0A0A0"/>
</g>
<rect x="341" y="248" width="134" height="211" rx="5" fill="white"/>
<mask id="mask0" mask-type="alpha" maskUnits="userSpaceOnUse" x="350" y="257" width="116" height="101">
<rect x="350" y="257" width="116" height="101" fill="url(#paint0_linear)"/>
</mask>
<g mask="url(#mask0)">
<rect x="350" y="257" width="116" height="101" rx="2" fill="url(#paint1_linear)"/>
<g filter="url(#filter2_f)">
<circle cx="334" cy="238" r="74" fill="white"/>
</g>
</g>
<rect x="350" y="364" width="15" height="15" rx="2" fill="#F13D35"/>
<rect x="370" y="364" width="15" height="15" rx="2" fill="#E6285F"/>
<rect x="390" y="364" width="15" height="15" rx="2" fill="#9A36AA"/>
<rect x="410" y="364" width="15" height="15" rx="2" fill="#714DB5"/>
<rect x="430" y="364" width="15" height="15" rx="2" fill="#5A68B7"/>
<rect x="451" y="364" width="15" height="15" rx="2" fill="#4FA6F0"/>
<rect x="350" y="385" width="15" height="15" rx="2" fill="#FF915A"/>
<rect x="370" y="385" width="15" height="15" rx="2" fill="#FF6D4B"/>
<rect x="390" y="385" width="15" height="15" rx="2" fill="#FFA97C"/>
<rect x="410" y="385" width="15" height="15" rx="2" fill="#FFB555"/>
<rect x="430" y="385" width="15" height="15" rx="2" fill="#FFCAB0"/>
<rect x="450" y="385" width="15" height="15" rx="2" fill="#FFE9DF"/>
<rect x="350" y="406" width="115" height="17" rx="2" fill="#EFF1F2"/>
<path d="M376.061 417H376.529L376.797 415.682H377.654L377.746 415.21H376.892L377.137 414.02H377.958L378.05 413.552H377.235L377.497 412.279H377.029L376.764 413.552H375.675L375.93 412.279H375.466L375.201 413.552H374.393L374.298 414.02H375.106L374.867 415.21H374.092L374 415.682H374.766L374.501 417H374.965L375.233 415.682H376.329L376.061 417ZM375.325 415.22L375.57 414.013H376.673L376.427 415.22H375.325ZM380.141 417.082C381.109 417.082 381.812 416.401 381.812 415.469C381.812 414.573 381.145 413.908 380.245 413.908C379.604 413.908 379.12 414.249 378.927 414.674H378.917C378.937 413.418 379.385 412.718 380.173 412.718C380.657 412.718 381.011 412.963 381.148 413.388H381.747C381.6 412.665 380.981 412.197 380.18 412.197C379.025 412.197 378.348 413.13 378.348 414.72C378.348 416.477 379.27 417.082 380.141 417.082ZM380.134 416.558C379.529 416.558 379.058 416.077 379.058 415.472C379.058 414.87 379.519 414.425 380.144 414.425C380.769 414.425 381.214 414.87 381.214 415.489C381.214 416.084 380.736 416.558 380.134 416.558ZM383.945 417.079C385.1 417.079 385.774 416.149 385.774 414.559C385.774 412.77 384.825 412.197 383.981 412.197C383.013 412.197 382.31 412.878 382.31 413.81C382.31 414.707 382.977 415.371 383.877 415.371C384.479 415.371 384.995 415.067 385.195 414.599H385.205C385.188 415.852 384.753 416.565 383.952 416.565C383.461 416.565 383.091 416.339 382.961 415.904H382.362C382.499 416.614 383.131 417.079 383.945 417.079ZM383.978 414.854C383.36 414.854 382.905 414.406 382.905 413.791C382.905 413.199 383.383 412.727 383.988 412.727C384.596 412.727 385.067 413.202 385.067 413.807C385.067 414.409 384.603 414.854 383.978 414.854ZM386.53 412.279V417H388.116C389.52 417 390.344 416.127 390.344 414.638C390.344 413.153 389.517 412.279 388.116 412.279H386.53ZM387.119 412.809H388.077C389.15 412.809 389.742 413.464 389.742 414.645C389.742 415.816 389.147 416.47 388.077 416.47H387.119V412.809ZM391.273 417H391.892L393.992 412.826V412.279H390.868V412.803H393.41V412.816L391.273 417ZM394.741 412.279V417H396.328C397.731 417 398.556 416.127 398.556 414.638C398.556 413.153 397.728 412.279 396.328 412.279H394.741ZM395.33 412.809H396.289C397.362 412.809 397.954 413.464 397.954 414.645C397.954 415.816 397.358 416.47 396.289 416.47H395.33V412.809ZM402.213 416.47H399.877V414.847H402.092V414.324H399.877V412.809H402.213V412.279H399.289V417H402.213V416.47Z" fill="#1E1E1E"/>
<path d="M359.227 417V412.279H358.638V414.321H356.047V412.279H355.458V417H356.047V414.851H358.638V417H359.227ZM363.067 416.47H360.732V414.847H362.946V414.324H360.732V412.809H363.067V412.279H360.143V417H363.067V416.47ZM363.535 417H364.203L365.475 415.119H365.498L366.751 417H367.458L365.865 414.661V414.641L367.494 412.279H366.823L365.547 414.177H365.524L364.265 412.279H363.555L365.142 414.612V414.635L363.535 417Z" fill="#6A6E72"/>
<rect x="350" y="429" width="53" height="17" rx="2" fill="#FF464E"/>
<path d="M369.229 438.734C369.285 439.549 369.972 440.079 371.002 440.079C372.059 440.079 372.746 439.532 372.746 438.659C372.746 437.991 372.357 437.599 371.372 437.383L370.848 437.268C370.204 437.128 369.952 436.872 369.952 436.5C369.952 436.019 370.407 435.731 370.996 435.731C371.611 435.731 372.02 436.048 372.072 436.565H372.661C372.635 435.763 371.954 435.201 371.012 435.201C370.034 435.201 369.347 435.747 369.347 436.526C369.347 437.196 369.756 437.625 370.701 437.831L371.225 437.946C371.879 438.089 372.141 438.351 372.141 438.747C372.141 439.212 371.676 439.549 371.035 439.549C370.358 439.549 369.887 439.241 369.818 438.734H369.229ZM374.342 440.059C374.8 440.059 375.232 439.804 375.435 439.414H375.448V440H375.988V437.648C375.988 436.971 375.484 436.539 374.686 436.539C373.881 436.539 373.377 436.99 373.338 437.579H373.888C373.96 437.245 374.234 437.039 374.673 437.039C375.144 437.039 375.419 437.288 375.419 437.703V437.988L374.444 438.044C373.659 438.089 373.21 438.456 373.21 439.038C373.21 439.65 373.665 440.059 374.342 440.059ZM374.47 439.575C374.061 439.575 373.789 439.362 373.789 439.038C373.789 438.718 374.051 438.515 374.509 438.485L375.419 438.43V438.708C375.419 439.198 375.006 439.575 374.47 439.575ZM379.501 436.598H378.909L377.967 439.395H377.954L377.015 436.598H376.416L377.669 440H378.252L379.501 436.598ZM382.109 439.025C382.014 439.346 381.697 439.565 381.265 439.565C380.653 439.565 380.27 439.136 380.27 438.485V438.453H382.711V438.237C382.711 437.206 382.145 436.539 381.226 436.539C380.287 436.539 379.685 437.255 379.685 438.312C379.685 439.382 380.277 440.059 381.252 440.059C381.994 440.059 382.57 439.621 382.668 439.025H382.109ZM381.216 437.033C381.752 437.033 382.109 437.438 382.122 438.008H380.274C380.31 437.442 380.682 437.033 381.216 437.033Z" fill="white"/>
<rect x="412" y="429" width="53" height="17" rx="2" fill="#FF464E"/>
<path d="M432.401 440.079C433.445 440.079 434.145 439.558 434.361 438.626H433.765C433.595 439.202 433.098 439.535 432.405 439.535C431.472 439.535 430.88 438.796 430.88 437.638C430.88 436.49 431.479 435.744 432.401 435.744C433.075 435.744 433.615 436.149 433.765 436.768H434.361C434.21 435.826 433.429 435.201 432.401 435.201C431.109 435.201 430.275 436.156 430.275 437.638C430.275 439.133 431.099 440.079 432.401 440.079ZM434.999 440H435.568V435.279H434.999V440ZM438.594 439.025C438.499 439.346 438.182 439.565 437.75 439.565C437.138 439.565 436.756 439.136 436.756 438.485V438.453H439.196V438.237C439.196 437.206 438.63 436.539 437.711 436.539C436.772 436.539 436.17 437.255 436.17 438.312C436.17 439.382 436.762 440.059 437.737 440.059C438.48 440.059 439.055 439.621 439.154 439.025H438.594ZM437.701 437.033C438.238 437.033 438.594 437.438 438.607 438.008H436.759C436.795 437.442 437.168 437.033 437.701 437.033ZM440.766 440.059C441.224 440.059 441.656 439.804 441.859 439.414H441.872V440H442.412V437.648C442.412 436.971 441.908 436.539 441.11 436.539C440.305 436.539 439.801 436.99 439.762 437.579H440.312C440.384 437.245 440.658 437.039 441.097 437.039C441.568 437.039 441.843 437.288 441.843 437.703V437.988L440.868 438.044C440.083 438.089 439.635 438.456 439.635 439.038C439.635 439.65 440.089 440.059 440.766 440.059ZM440.894 439.575C440.485 439.575 440.214 439.362 440.214 439.038C440.214 438.718 440.475 438.515 440.933 438.485L441.843 438.43V438.708C441.843 439.198 441.431 439.575 440.894 439.575ZM443.135 440H443.704V437.88C443.704 437.399 443.992 437.082 444.434 437.082C444.571 437.082 444.692 437.098 444.738 437.115V436.562C444.692 436.555 444.607 436.539 444.509 436.539C444.11 436.539 443.796 436.778 443.685 437.154H443.672V436.598H443.135V440Z" fill="white"/>
<g opacity="0.3" filter="url(#filter3_f)">
<rect x="68" y="360" width="47" height="61" fill="#A0A0A0"/>
</g>
<rect x="60" y="348" width="62.3613" height="62.3613" rx="8.66064" fill="white"/>
<path d="M70.3926 367.053C70.3926 362.27 74.2701 358.393 79.0532 358.393H103.306C108.089 358.393 111.967 362.27 111.967 367.053V391.306C111.967 396.089 108.089 399.967 103.306 399.967H79.0532C74.2701 399.967 70.3926 396.089 70.3926 391.306V367.053Z" fill="white"/>
<path fill-rule="evenodd" clip-rule="evenodd" d="M77.3239 361.859H105.04C106.953 361.859 108.505 363.41 108.505 365.324V393.04C108.505 394.953 106.953 396.505 105.04 396.505H77.3239C75.4105 396.505 73.8594 394.953 73.8594 393.04V365.324C73.8594 363.41 75.4105 361.859 77.3239 361.859ZM77.3213 365.321V385.392L84.2515 378.462L90.3147 384.525L101.573 373.266L105.037 376.731V365.321H77.3213ZM77.3213 393.037V390.291L84.2515 383.361L93.9278 393.037H77.3213ZM105.037 393.037H98.8274L92.7645 386.975L101.573 378.166L105.037 381.63V393.037ZM94.6434 372.251C94.6434 369.381 92.3167 367.055 89.4466 367.055C86.5765 367.055 84.2498 369.381 84.2498 372.251C84.2498 375.121 86.5765 377.448 89.4466 377.448C92.3167 377.448 94.6434 375.121 94.6434 372.251ZM87.7163 372.253C87.7163 371.297 88.4918 370.521 89.4485 370.521C90.4052 370.521 91.1808 371.297 91.1808 372.253C91.1808 373.21 90.4052 373.986 89.4485 373.986C88.4918 373.986 87.7163 373.21 87.7163 372.253Z" fill="#FF464E"/>
<g opacity="0.3" filter="url(#filter4_f)">
<rect x="260" y="21" width="99" height="121" fill="#A0A0A0"/>
</g>
<rect x="251" y="11" width="117.996" height="117.996" rx="5" fill="white"/>
<path d="M270.664 35.6641C270.664 32.9026 272.903 30.6641 275.664 30.6641H344.328C347.09 30.6641 349.328 32.9026 349.328 35.6641V104.328C349.328 107.09 347.09 109.328 344.328 109.328H275.664C272.903 109.328 270.664 107.09 270.664 104.328V35.6641Z" fill="white"/>
<path fill-rule="evenodd" clip-rule="evenodd" d="M321.181 69.9977H298.815L293.609 83.1084H287.054L306.73 33.9434H313.275L332.942 83.1084H326.386L321.181 69.9977ZM329.663 89.6619H290.331C286.71 89.6619 283.775 92.5968 283.775 96.2172V99.4949C283.775 103.115 286.71 106.05 290.331 106.05H329.663C333.283 106.05 336.218 103.115 336.218 99.4949V96.2172C336.218 92.5968 333.283 89.6619 329.663 89.6619ZM290.335 99.4989V96.2212H329.667V99.4989H290.335ZM309.993 41.833L318.573 63.4424H301.413L309.993 41.833Z" fill="#6700CE"/>
<g opacity="0.3" filter="url(#filter5_f)">
<rect x="223" y="190" width="89" height="107" fill="#A0A0A0"/>
</g>
<rect x="212" y="172" width="110.967" height="110.967" rx="11" fill="white"/>
<path fill-rule="evenodd" clip-rule="evenodd" d="M242.827 196.662H292.146C295.55 196.662 298.31 199.422 298.31 202.827V252.146C298.31 255.55 295.55 258.31 292.146 258.31H242.827C239.422 258.31 236.662 255.55 236.662 252.146V202.827C236.662 199.422 239.422 196.662 242.827 196.662ZM242.822 202.822V252.141H292.141V202.822H242.822ZM270.568 218.239V236.732H273.648V242.897H261.319V236.732H264.403V218.239H258.239V221.322H252.074V212.074H282.898V221.322H276.734V218.239H270.568Z" fill="#FFAB5F"/>
<g opacity="0.3" filter="url(#filter6_f)">
<rect x="35" y="91" width="65" height="85" fill="#A0A0A0"/>
</g>
<rect x="25" y="80" width="85" height="85" rx="6.08708" fill="white"/>
<path d="M39.166 100.251C39.166 96.8893 41.8913 94.1641 45.2531 94.1641H89.7456C93.1074 94.1641 95.8327 96.8893 95.8327 100.251V144.744C95.8327 148.105 93.1074 150.831 89.7456 150.831H45.2531C41.8913 150.831 39.166 148.105 39.166 144.744V100.251Z" fill="white"/>
<path fill-rule="evenodd" clip-rule="evenodd" d="M74.584 110.694H79.3062V122.5C79.3062 128.334 79.7536 129.583 81.6673 129.583C84.747 129.583 86.3896 128.127 86.3896 122.5C86.3896 110.011 80.1256 103.611 67.501 103.611C59.322 103.612 52.0728 108.877 49.5417 116.654C47.0106 124.432 49.7725 132.955 56.3843 137.769C62.9961 142.584 71.9554 142.596 78.5803 137.8L81.3496 141.625C73.0684 147.62 61.8693 147.605 53.6046 141.587C45.3399 135.568 41.8874 124.915 45.0513 115.193C48.2152 105.471 57.2766 98.89 67.5007 98.8887C82.7567 98.8887 91.1118 107.426 91.1118 122.5C91.1118 130.87 87.237 134.305 81.6673 134.305C78.491 134.305 76.6746 133.28 75.6784 131.004C73.5564 133.045 70.6727 134.3 67.4961 134.3C60.976 134.3 55.6905 129.014 55.6905 122.494C55.6905 115.974 60.976 110.689 67.4961 110.689C70.1558 110.689 72.6101 111.568 74.584 113.052V110.694ZM74.5828 122.498C74.5828 126.41 71.4115 129.581 67.4995 129.581C63.5875 129.581 60.4162 126.41 60.4162 122.498C60.4162 118.586 63.5875 115.414 67.4995 115.414C71.4115 115.414 74.5828 118.586 74.5828 122.498Z" fill="#393939"/>
<defs>
<filter id="filter0_d" x="0" y="106" width="500" height="287" filterUnits="userSpaceOnUse" color-interpolation-filters="sRGB">
<feFlood flood-opacity="0" result="BackgroundImageFix"/>
<feColorMatrix in="SourceAlpha" type="matrix" values="0 0 0 0 0 0 0 0 0 0 0 0 0 0 0 0 0 0 127 0"/>
<feOffset dy="4"/>
<feGaussianBlur stdDeviation="7"/>
<feColorMatrix type="matrix" values="0 0 0 0 0 0 0 0 0 0 0 0 0 0 0 0 0 0 0.07 0"/>
<feBlend mode="normal" in2="BackgroundImageFix" result="effect1_dropShadow"/>
<feBlend mode="normal" in="SourceGraphic" in2="effect1_dropShadow" result="shape"/>
</filter>
<filter id="filter1_f" x="306" y="222" width="204" height="303" filterUnits="userSpaceOnUse" color-interpolation-filters="sRGB">
<feFlood flood-opacity="0" result="BackgroundImageFix"/>
<feBlend mode="normal" in="SourceGraphic" in2="BackgroundImageFix" result="shape"/>
<feGaussianBlur stdDeviation="22" result="effect1_foregroundBlur"/>
</filter>
<filter id="filter2_f" x="176" y="80" width="316" height="316" filterUnits="userSpaceOnUse" color-interpolation-filters="sRGB">
<feFlood flood-opacity="0" result="BackgroundImageFix"/>
<feBlend mode="normal" in="SourceGraphic" in2="BackgroundImageFix" result="shape"/>
<feGaussianBlur stdDeviation="42" result="effect1_foregroundBlur"/>
</filter>
<filter id="filter3_f" x="47.9412" y="339.941" width="87.1176" height="101.118" filterUnits="userSpaceOnUse" color-interpolation-filters="sRGB">
<feFlood flood-opacity="0" result="BackgroundImageFix"/>
<feBlend mode="normal" in="SourceGraphic" in2="BackgroundImageFix" result="shape"/>
<feGaussianBlur stdDeviation="10.0294" result="effect1_foregroundBlur"/>
</filter>
<filter id="filter4_f" x="239.941" y="0.941177" width="139.118" height="161.118" filterUnits="userSpaceOnUse" color-interpolation-filters="sRGB">
<feFlood flood-opacity="0" result="BackgroundImageFix"/>
<feBlend mode="normal" in="SourceGraphic" in2="BackgroundImageFix" result="shape"/>
<feGaussianBlur stdDeviation="10.0294" result="effect1_foregroundBlur"/>
</filter>
<filter id="filter5_f" x="199.227" y="166.227" width="136.547" height="154.547" filterUnits="userSpaceOnUse" color-interpolation-filters="sRGB">
<feFlood flood-opacity="0" result="BackgroundImageFix"/>
<feBlend mode="normal" in="SourceGraphic" in2="BackgroundImageFix" result="shape"/>
<feGaussianBlur stdDeviation="11.8867" result="effect1_foregroundBlur"/>
</filter>
<filter id="filter6_f" x="11.2266" y="67.2266" width="112.547" height="132.547" filterUnits="userSpaceOnUse" color-interpolation-filters="sRGB">
<feFlood flood-opacity="0" result="BackgroundImageFix"/>
<feBlend mode="normal" in="SourceGraphic" in2="BackgroundImageFix" result="shape"/>
<feGaussianBlur stdDeviation="11.8867" result="effect1_foregroundBlur"/>
</filter>
<linearGradient id="paint0_linear" x1="354.5" y1="363" x2="469.5" y2="262" gradientUnits="userSpaceOnUse">
<stop stop-color="#060606"/>
<stop offset="1" stop-color="#0015F5"/>
</linearGradient>
<linearGradient id="paint1_linear" x1="354.5" y1="363" x2="469.5" y2="262" gradientUnits="userSpaceOnUse">
<stop stop-color="#FFB742"/>
<stop offset="1" stop-color="#FF464E"/>
</linearGradient>
</defs>
</svg>
